<?xml version="1.0" encoding="utf-8" standalone="yes"?>
<!DOCTYPE svg PUBLIC "-//W3C//DTD SVG 1.1//EN" "http://www.w3.org/Graphics/SVG/1.1/DTD/svg11.dtd">
<svg width="674" height="542" viewBox="0 0 674 542" style="fill:none;stroke:none;fill-rule:evenodd;clip-rule:evenodd;stroke-linecap:round;stroke-linejoin:round;stroke-miterlimit:1.5;" version="1.1" xmlns="http://www.w3.org/2000/svg" xmlns:xlink="http://www.w3.org/1999/xlink"><style id="fontImports">@import url("https://fonts.googleapis.com/css2?family=Roboto:wght@400;700&amp;display=block");</style><rect id="" x="0" y="0" width="674" height="542" style="fill: #1ac6ff;"></rect><g id="items" style="isolation: isolate"><g id="blend" style="mix-blend-mode: normal"><g id="g-root-tf_3d7u017bzw8w-fill" data-item-order="-362880" transform="translate(-9, -9)"><g id="tf_3d7u017bzw8w-fill" stroke="none" fill="#1ac6ff"><g><path d="M 10 10L 682 10L 682 550L 10 550Z"></path></g></g></g><g id="g-root--1.cu_sy_18jfeug17bx2io-fill" data-item-order="-116707" transform="translate(181.42523193359375, 154.001953125)"></g><g id="g-root-0.cu_sy_znselk17bx3bd-fill" data-item-order="-116704" transform="translate(279, 243)"><g id="0.cu_sy_znselk17bx3bd-fill" stroke="none" fill="#666666"><g><path d="M 102.3346 39.636C 112.477 64.1213 100.8493 92.1925 76.364 102.3346C 51.8787 112.477 23.8075 100.8493 13.6654 76.364C 3.5232 51.8787 15.1507 23.8075 39.636 13.6654C 64.1213 3.5232 92.1925 15.1507 102.3346 39.636Z"></path></g></g></g><g id="g-root-6.cu_sy_v7ywh417bx43m-fill" data-item-order="-116700" transform="translate(225, 135)"><g id="6.cu_sy_v7ywh417bx43m-fill" stroke="none" fill="#e55753"><g><path d="M 56.1673 24.818008C 61.2384 37.060708 55.4247 51.096208 43.182 56.167308C 30.9393 61.238408 16.9038 55.424708 11.8327 43.182008C 6.7616 30.939308 12.5753 16.903808 24.818 11.832708C 37.0607 6.761608 51.0962 12.575308 56.1673 24.818008Z"></path></g></g></g><g id="g-root-5.cu_sy_mcbw8817bx4wb-fill" data-item-order="-116696" transform="translate(147, 267)"><g id="5.cu_sy_mcbw8817bx4wb-fill" stroke="none" fill="#de8431"><g><path d="M 24.818015 56.167315C 12.575315 51.096215 6.761615 37.060715 11.832715 24.818015C 16.903815 12.575315 30.939315 6.761615 43.182015 11.832715C 55.424715 16.903815 61.238415 30.939315 56.167315 43.182015C 51.096215 55.424715 37.060715 61.238415 24.818015 56.167315Z"></path></g></g></g><g id="g-root-4.cu_sy_mcbw8817bx4wc-fill" data-item-order="-116692" transform="translate(225, 399)"><g id="4.cu_sy_mcbw8817bx4wc-fill" stroke="none" fill="#e0cb15"><g><path d="M 43.182 56.1673C 30.9393 61.2384 16.9038 55.4247 11.8327 43.182C 6.7616 30.9393 12.5753 16.9038 24.818 11.8327C 37.0607 6.7616 51.0962 12.5753 56.1673 24.818C 61.2384 37.0607 55.4247 51.0962 43.182 56.1673Z"></path></g></g></g><g id="g-root-3.cu_sy_hx4v6w17bx2it-fill" data-item-order="-116688" transform="translate(381, 399)"><g id="3.cu_sy_hx4v6w17bx2it-fill" stroke="none" fill="#92bd39"><g><path d="M 56.1673 43.182C 51.0962 55.4247 37.0607 61.2384 24.818 56.1673C 12.5753 51.0962 6.7616 37.0607 11.8327 24.818C 16.9038 12.5753 30.9393 6.7616 43.182 11.8327C 55.4247 16.9038 61.2384 30.9393 56.1673 43.182Z"></path></g></g></g><g id="g-root-2.cu_sy_hx4v6w17bx2iu-fill" data-item-order="-116684" transform="translate(459, 267)"><g id="2.cu_sy_hx4v6w17bx2iu-fill" stroke="none" fill="#3cc583"><g><path d="M 56.1673 24.818C 61.2384 37.0607 55.4247 51.0962 43.182 56.1673C 30.9393 61.2384 16.9038 55.4247 11.8327 43.182C 6.7616 30.9393 12.5753 16.9038 24.818 11.8327C 37.0607 6.7616 51.0962 12.5753 56.1673 24.818Z"></path></g></g></g><g id="g-root-1.cu_sy_91huy017bx3bj-fill" data-item-order="-116680" transform="translate(381, 135)"><g id="1.cu_sy_91huy017bx3bj-fill" stroke="none" fill="#1eabda"><g><path d="M 24.818 56.167308C 12.5753 51.096208 6.7616 37.060708 11.8327 24.818008C 16.9038 12.575308 30.9393 6.761608 43.182 11.832708C 55.4247 16.903808 61.2384 30.939308 56.1673 43.182008C 51.0962 55.424708 37.0607 61.238408 24.818 56.167308Z"></path></g></g></g><g id="g-root-cart_hye2ug17brgg0-fill" data-item-order="0" transform="translate(393, 147)"></g><g id="g-root-tx_keywordr_18gbaw817bzx1g-fill" data-item-order="0" transform="translate(441, 411)"><g id="tx_keywordr_18gbaw817bzx1g-fill" stroke="none" fill="#424736"><g><text style="font: 20px Roboto, sans-serif; white-space: pre;" font-size="20px" font-family="Roboto, sans-serif"><tspan x="12" y="34" dominant-baseline="ideographic">Keyword </tspan><tspan x="12" y="58" dominant-baseline="ideographic">Research &amp; </tspan><tspan x="12" y="82" dominant-baseline="ideographic">Optimization</tspan></text></g></g></g><g id="g-root-incr_1um5p0o17bltl7-fill" data-item-order="0" transform="translate(237, 147)"></g><g id="g-root-user_8cu7c17bx4i7-fill" data-item-order="0" transform="translate(159, 279)"></g><g id="g-root-lapt_4hbap417bzwg8-fill" data-item-order="0" transform="translate(303, 267)"></g><g id="g-root-tx_comprehe_zkoanc17bzxu6-fill" data-item-order="0" transform="translate(441, 123)"><g id="tx_comprehe_zkoanc17bzxu6-fill" stroke="none" fill="#32444a"><g><text style="font: 20px Roboto, sans-serif; white-space: pre;" font-size="20px" font-family="Roboto, sans-serif"><tspan x="12" y="34" dominant-baseline="ideographic">Comprehensive </tspan><tspan x="12" y="58" dominant-baseline="ideographic">Store Audit</tspan></text></g></g></g><g id="g-root-tx_marketco_18gbaw817bzx1h-fill" data-item-order="0" transform="translate(519, 255)"><g id="tx_marketco_18gbaw817bzx1h-fill" stroke="none" fill="#374840"><g><text style="font: 20px Roboto, sans-serif; white-space: pre;" font-size="20px" font-family="Roboto, sans-serif"><tspan x="12" y="34" dominant-baseline="ideographic">Market &amp; </tspan><tspan x="12" y="58" dominant-baseline="ideographic">Competitor </tspan><tspan x="12" y="82" dominant-baseline="ideographic">Analysis</tspan></text></g></g></g><g id="g-root-plat_4njyeg17c2rdb-fill" data-item-order="0" transform="translate(471, 279)"></g><g id="g-root-tx_strategi_1lrrt9k17bzvgj-fill" data-item-order="0" transform="translate(69, 411)"><g id="tx_strategi_1lrrt9k17bzvgj-fill" stroke="none" fill="#46432d"><g><text style="font: 20px Roboto, sans-serif; white-space: pre;" font-size="20px" font-family="Roboto, sans-serif"><tspan x="72.6" y="34" dominant-baseline="ideographic">Strategic </tspan><tspan x="11.85" y="58" dominant-baseline="ideographic">Implementation</tspan></text></g></g></g><g id="g-root-star_1lpwaug17bj0g5-fill" data-item-order="0" transform="translate(237, 411)"></g><g id="g-root-tx_continuo_1hsko17bzx8h-fill" data-item-order="0" transform="translate(81, 99)"><g id="tx_continuo_1hsko17bzx8h-fill" stroke="none" fill="#543a3a"><g><text style="font: 20px Roboto, sans-serif; white-space: pre;" font-size="20px" font-family="Roboto, sans-serif"><tspan x="38.3" y="34" dominant-baseline="ideographic">Continuous </tspan><tspan x="26.15" y="58" dominant-baseline="ideographic">Monitoring &amp; </tspan><tspan x="22.05" y="82" dominant-baseline="ideographic">Improvement</tspan></text></g></g></g><g id="g-root-sear_1qcl0x417bx4aq-fill" data-item-order="0" transform="translate(393, 411)"></g><g id="g-root-tx_spotcirc_m9u9d417bzw9b-fill" data-item-order="0" transform="translate(177, 39)"><g id="tx_spotcirc_m9u9d417bzw9b-fill" stroke="none" fill="#484848"><g><text style="font: 20px Roboto, sans-serif; white-space: pre;" font-size="20px" font-family="Roboto, sans-serif"><tspan x="13.65" y="34" dominant-baseline="ideographic">SpotCircuit's 6-Step SEO Process</tspan></text></g></g></g><g id="g-root-tx_aipowere_1lrrt9k17bzvgi-fill" data-item-order="0" transform="translate(15, 267)"><g id="tx_aipowere_1lrrt9k17bzvgi-fill" stroke="none" fill="#4c4034"><g><text style="font: 20px Roboto, sans-serif; white-space: pre;" font-size="20px" font-family="Roboto, sans-serif"><tspan x="25.98" y="34" dominant-baseline="ideographic">AI-Powered </tspan><tspan x="14.54" y="58" dominant-baseline="ideographic">Optimization</tspan></text></g></g></g><g id="g-root-tf_3d7u017bzw8w-stroke" data-item-order="-362880" transform="translate(-9, -9)"></g><g id="g-root--1.cu_sy_18jfeug17bx2io-stroke" data-item-order="-116707" transform="translate(181.42523193359375, 154.001953125)"><g id="-1.cu_sy_18jfeug17bx2io-stroke" fill="none" stroke-linecap="round" stroke-linejoin="round" stroke-miterlimit="4" stroke="#000000" stroke-width="2" stroke-dasharray="5.0, 7.0"><g><path d="M 301.1492 125.386947C 278.596 102.928547 221.9224 86.998047 155.5748 86.998047C 89.2272 86.998047 32.5535 102.928547 10.0003 125.386947M 301.1496 168.608847C 278.5966 191.067447 221.9227 206.998047 155.5748 206.998047C 89.2268 206.998047 32.553 191.067447 10 168.608847M 210.102997 10C 179.338597 18.0158 136.951797 59.254 103.613297 116.9979C 71.372697 172.8403 56.731597 228.2929 63.435897 259.6058M 247.713197 34.3878C 254.418697 65.7003 239.777697 121.1542 207.536297 176.9979C 174.196997 234.7433 131.808897 275.9821 101.044297 283.9964M 210.105197 283.9965C 179.340597 275.982 136.952497 234.7433 103.613197 176.998C 71.371897 121.1543 56.730997 65.7005 63.436397 34.388M 101.046397 10C 131.810797 18.0157 174.197797 59.2539 207.536297 116.998C 239.776997 172.8404 254.417897 228.293 247.713597 259.6059"></path></g></g></g><g id="g-root-0.cu_sy_znselk17bx3bd-stroke" data-item-order="-116704" transform="translate(279, 243)"><g id="0.cu_sy_znselk17bx3bd-stroke" fill="none" stroke-linecap="round" stroke-linejoin="round" stroke-miterlimit="4" stroke="#000000" stroke-width="2"><g><path d="M 102.3346 39.636C 112.4768 64.1213 100.8493 92.1925 76.364 102.3346C 51.8787 112.4768 23.8075 100.8493 13.6654 76.364C 3.5232 51.8787 15.1507 23.8075 39.636 13.6654C 64.1213 3.5232 92.1925 15.1507 102.3346 39.636Z"></path></g></g></g><g id="g-root-6.cu_sy_v7ywh417bx43m-stroke" data-item-order="-116700" transform="translate(225, 135)"><g id="6.cu_sy_v7ywh417bx43m-stroke" fill="none" stroke-linecap="round" stroke-linejoin="round" stroke-miterlimit="4" stroke="#000000" stroke-width="2"><g><path d="M 56.1673 24.818008C 61.2384 37.060708 55.4247 51.096208 43.182 56.167308C 30.9393 61.238408 16.9038 55.424708 11.8327 43.182008C 6.7616 30.939308 12.5753 16.903808 24.818 11.832708C 37.0607 6.761608 51.0962 12.575308 56.1673 24.818008Z"></path></g></g></g><g id="g-root-5.cu_sy_mcbw8817bx4wb-stroke" data-item-order="-116696" transform="translate(147, 267)"><g id="5.cu_sy_mcbw8817bx4wb-stroke" fill="none" stroke-linecap="round" stroke-linejoin="round" stroke-miterlimit="4" stroke="#000000" stroke-width="2"><g><path d="M 24.818015 56.167315C 12.575315 51.096215 6.761615 37.060715 11.832715 24.818015C 16.903815 12.575315 30.939315 6.761615 43.182015 11.832715C 55.424715 16.903815 61.238415 30.939315 56.167315 43.182015C 51.096215 55.424715 37.060715 61.238415 24.818015 56.167315Z"></path></g></g></g><g id="g-root-4.cu_sy_mcbw8817bx4wc-stroke" data-item-order="-116692" transform="translate(225, 399)"><g id="4.cu_sy_mcbw8817bx4wc-stroke" fill="none" stroke-linecap="round" stroke-linejoin="round" stroke-miterlimit="4" stroke="#000000" stroke-width="2"><g><path d="M 43.182 56.1673C 30.9393 61.2384 16.9038 55.4247 11.8327 43.182C 6.7616 30.9393 12.5753 16.9038 24.818 11.8327C 37.0607 6.7616 51.0962 12.5753 56.1673 24.818C 61.2384 37.0607 55.4247 51.0962 43.182 56.1673Z"></path></g></g></g><g id="g-root-3.cu_sy_hx4v6w17bx2it-stroke" data-item-order="-116688" transform="translate(381, 399)"><g id="3.cu_sy_hx4v6w17bx2it-stroke" fill="none" stroke-linecap="round" stroke-linejoin="round" stroke-miterlimit="4" stroke="#000000" stroke-width="2"><g><path d="M 56.1673 43.182C 51.0962 55.4247 37.0607 61.2384 24.818 56.1673C 12.5753 51.0962 6.7616 37.0607 11.8327 24.818C 16.9038 12.5753 30.9393 6.7616 43.182 11.8327C 55.4247 16.9038 61.2384 30.9393 56.1673 43.182Z"></path></g></g></g><g id="g-root-2.cu_sy_hx4v6w17bx2iu-stroke" data-item-order="-116684" transform="translate(459, 267)"><g id="2.cu_sy_hx4v6w17bx2iu-stroke" fill="none" stroke-linecap="round" stroke-linejoin="round" stroke-miterlimit="4" stroke="#000000" stroke-width="2"><g><path d="M 56.1673 24.818C 61.2384 37.0607 55.4247 51.0962 43.182 56.1673C 30.9393 61.2384 16.9038 55.4247 11.8327 43.182C 6.7616 30.9393 12.5753 16.9038 24.818 11.8327C 37.0607 6.7616 51.0962 12.5753 56.1673 24.818Z"></path></g></g></g><g id="g-root-1.cu_sy_91huy017bx3bj-stroke" data-item-order="-116680" transform="translate(381, 135)"><g id="1.cu_sy_91huy017bx3bj-stroke" fill="none" stroke-linecap="round" stroke-linejoin="round" stroke-miterlimit="4" stroke="#000000" stroke-width="2"><g><path d="M 24.818 56.167308C 12.5753 51.096208 6.7616 37.060708 11.8327 24.818008C 16.9038 12.575308 30.9393 6.761608 43.182 11.832708C 55.4247 16.903808 61.2384 30.939308 56.1673 43.182008C 51.0962 55.424708 37.0607 61.238408 24.818 56.167308Z"></path></g></g></g><g id="g-root-cart_hye2ug17brgg0-stroke" data-item-order="0" transform="translate(393, 147)"><g id="cart_hye2ug17brgg0-stroke" fill="none" stroke-linecap="round" stroke-linejoin="round" stroke-miterlimit="4" stroke="#ffffff" stroke-width="2"><g><path d="M 12.004 12.5L 32.004 12.5C 32.004 12.5 33.004 12.5 33.004 13.5L 33.004 27.5C 33.004 27.5 33.004 28.5 32.004 28.5L 12.004 28.5C 12.004 28.5 11.004 28.5 11.004 27.5L 11.004 13.5C 11.004 13.5 11.004 12.5 12.004 12.5M 27.504 23.5L 30.504 23.5M 30.504 25.5L 25.504 25.5M 22.004 10.5L 22.004 12.5M 22.004 28.5L 22.004 31M 22.004 31L 18.504 33.5M 22.004 31L 25.504 33.5M 17 25.25C 16.861929 25.25 16.75 25.361929 16.75 25.5C 16.75 25.638071 16.861929 25.75 17 25.75C 17.138071 25.75 17.25 25.638071 17.25 25.5C 17.25 25.361929 17.138071 25.25 17 25.25M 21 25.25C 20.861929 25.25 20.75 25.361929 20.75 25.5C 20.75 25.638071 20.861929 25.75 21 25.75C 21.138071 25.75 21.25 25.638071 21.25 25.5C 21.25 25.361929 21.138071 25.25 21 25.25M 14.004 16L 16.504 23.5L 21.504 23.5L 23.004 18.5L 14.837 18.5"></path></g></g></g><g id="g-root-tx_keywordr_18gbaw817bzx1g-stroke" data-item-order="0" transform="translate(441, 411)"></g><g id="g-root-incr_1um5p0o17bltl7-stroke" data-item-order="0" transform="translate(237, 147)"><g id="incr_1um5p0o17bltl7-stroke" fill="none" stroke-linecap="round" stroke-linejoin="round" stroke-miterlimit="4" stroke="#ffffff" stroke-width="2"><g><path d="M 10.504 33.25L 33.504 33.25M 14.5 33.25L 14.5 30.75C 14.5 30.473858 14.276142 30.25 14 30.25L 12 30.25C 11.723858 30.25 11.5 30.473858 11.5 30.75L 11.5 33.25M 20.5 33.25L 20.5 26.75C 20.5 26.473858 20.276142 26.25 20 26.25L 18 26.25C 17.723858 26.25 17.5 26.473858 17.5 26.75L 17.5 33.25M 26.5 33.25L 26.5 22.75C 26.5 22.473858 26.276142 22.25 26 22.25L 24 22.25C 23.723858 22.25 23.5 22.473858 23.5 22.75L 23.5 33.25M 32.5 33.25L 32.5 18.75C 32.5 18.473858 32.276142 18.25 32 18.25L 30 18.25C 29.723858 18.25 29.5 18.473858 29.5 18.75L 29.5 33.25M 13.004 23.25L 31.004 11.25M 30.504 15.25L 31.004 11.25L 27.004 10.75"></path></g></g></g><g id="g-root-user_8cu7c17bx4i7-stroke" data-item-order="0" transform="translate(159, 279)"><g id="user_8cu7c17bx4i7-stroke" fill="none" stroke-linecap="round" stroke-linejoin="round" stroke-miterlimit="4" stroke="#ffffff" stroke-width="2"><g><path d="M 21 22.5C 17.686292 22.5 15 19.813709 15 16.5C 15 13.186292 17.686292 10.5 21 10.5ZM 11.5 33.5C 11.5 28.253295 15.753295 24 21 24L 21 33.5ZM 23 22.5C 23.335263 22.497992 23.669767 22.467887 24 22.41L 24 20.88C 24.491859 20.767168 24.960902 20.571367 25.386999 20.300999L 26.473 21.387C 27.020026 20.99798 27.49798 20.520026 27.887 19.973L 26.8 18.887C 27.070717 18.46097 27.266857 17.991923 27.379999 17.5L 28.91 17.5C 28.967887 17.169767 28.997992 16.835263 29.000001 16.5C 28.997992 16.164738 28.967887 15.830234 28.910001 15.5L 27.38 15.5C 27.266857 15.008076 27.070717 14.53903 26.799999 14.113L 27.886 13.027C 27.49698 12.479974 27.019026 12.00202 26.472 11.613L 25.387 12.7C 24.960969 12.429282 24.491923 12.233141 23.999999 12.12L 24 10.59C 23.669767 10.532114 23.335263 10.502008 23 10.5M 23 14.5C 24.104569 14.5 25 15.395431 25 16.5C 25 17.604569 24.104569 18.5 23 18.5M 32.5 33.5C 32.496392 32.997347 32.452922 32.495775 32.369998 31.999998L 30.349 32C 30.215391 31.351244 29.995433 30.723321 29.695001 30.133001L 31.166 28.663C 30.477861 27.50196 29.551103 26.500216 28.447001 25.724001L 27.005 27.167C 26.386035 26.773262 25.712012 26.473659 25.005 26.278L 25.005 24.215C 24.346134 24.072732 23.67405 24.000663 23 24M 23 29.5C 25.209139 29.5 27 31.290861 27 33.5"></path></g></g></g><g id="g-root-lapt_4hbap417bzwg8-stroke" data-item-order="0" transform="translate(303, 267)"><g id="lapt_4hbap417bzwg8-stroke" fill="none" stroke-linecap="round" stroke-linejoin="round" stroke-miterlimit="4" stroke="#ffffff" stroke-width="2"><g><path d="M 26.18 52L 34.18 52M 37 30C 37 34.970562 41.029438 39 46 39C 50.970562 39 55 34.970562 55 30C 55 25.029438 50.970562 21 46 21C 41.029438 21 37 25.029438 37 30M 35 40L 22 40L 22 36L 33 36M 51.84 36.84L 57 42M 46 16L 46 12M 39 17L 37 15M 53 17L 55 15M 32.18 28L 18 28C 16.895432 28 16 28.89543 16 30L 16 48L 44 48L 44 44M 48.759998 52.580002C 49.334412 53.150616 49.508118 54.011261 49.200001 54.759998C 48.890427 55.513588 48.154686 56.004082 47.34 56L 13 56C 12.192596 55.995968 11.466807 55.506851 11.16 54.759998C 10.846807 54.015205 11.012511 53.155121 11.58 52.580002L 16 48L 44 48Z"></path></g></g></g><g id="g-root-tx_comprehe_zkoanc17bzxu6-stroke" data-item-order="0" transform="translate(441, 123)"></g><g id="g-root-tx_marketco_18gbaw817bzx1h-stroke" data-item-order="0" transform="translate(519, 255)"></g><g id="g-root-plat_4njyeg17c2rdb-stroke" data-item-order="0" transform="translate(471, 279)"><g id="plat_4njyeg17c2rdb-stroke" fill="none" stroke-linecap="round" stroke-linejoin="round" stroke-miterlimit="4" stroke="#ffffff" stroke-width="2"><g><path d="M 10.5 22C 10.5 28.318137 15.648726 33.439999 22 33.439999C 28.351275 33.439999 33.5 28.318137 33.5 22C 33.5 15.681862 28.351275 10.56 22 10.56C 15.648726 10.56 10.5 15.681862 10.5 22M 16.77 22C 16.77 24.87188 19.111551 27.2 22 27.2C 24.88845 27.2 27.23 24.87188 27.23 22C 27.23 19.128119 24.88845 16.8 22 16.8C 19.111551 16.8 16.77 19.128119 16.77 22M 30.13 13.91C 30.719337 14.492384 31.051014 15.286452 31.051014 16.115C 31.051014 16.943547 30.719337 17.737615 30.129999 18.319999C 28.90498 19.539177 26.925021 19.539177 25.700001 18.32M 25.7 25.68C 25.110661 26.262384 24.778984 27.056451 24.778984 27.884999C 24.778984 28.713546 25.110661 29.507614 25.699999 30.089999C 26.929475 31.298338 28.900525 31.298338 30.13 30.09M 10.88 24.5C 10.88 26.223128 12.285826 27.62 14.02 27.62C 15.754174 27.62 17.16 26.223128 17.16 24.5C 17.16 22.776872 15.754174 21.38 14.02 21.38C 12.285826 21.38 10.88 22.776872 10.88 24.5"></path></g></g></g><g id="g-root-tx_strategi_1lrrt9k17bzvgj-stroke" data-item-order="0" transform="translate(69, 411)"></g><g id="g-root-star_1lpwaug17bj0g5-stroke" data-item-order="0" transform="translate(237, 411)"><g id="star_1lpwaug17bj0g5-stroke" fill="none" stroke-linecap="round" stroke-linejoin="round" stroke-miterlimit="4" stroke="#ffffff" stroke-width="2"><g><path d="M 25.541 12.831C 28.899469 15.83949 29.513399 20.868901 26.977244 24.596936C 24.441088 28.324971 19.537645 29.600952 15.506 27.582M 10.691 26.248L 13.52 26.248L 13.52 23.419M 28.369 12.813L 25.541 12.813L 25.541 15.641M 13.52 26.229C 10.172798 23.230193 9.55075 18.22183 12.062654 14.49531C 14.574557 10.768791 19.450454 9.466381 23.486 11.444M 20.248 14.889L 21.53 17.53L 24.03 17.53C 24.288319 17.520333 24.524941 17.673755 24.621525 17.913535C 24.718109 18.153314 24.653896 18.427913 24.460999 18.599999L 22.295 20.862L 23.495 23.623C 23.603781 23.882062 23.534932 24.181656 23.32397 24.367239C 23.113007 24.552823 22.807082 24.582918 22.564 24.442L 19.664 22.808L 16.764 24.442C 16.520918 24.582918 16.214993 24.552823 16.00403 24.367239C 15.793068 24.181656 15.724219 23.882062 15.833 23.623L 17.033 20.862L 14.863 18.6C 14.670598 18.428263 14.606263 18.15447 14.702044 17.915017C 14.797825 17.675564 15.033236 17.521669 15.291 17.529999L 17.791 17.53L 19.072 14.889C 19.185203 14.668561 19.412193 14.529955 19.66 14.529955C 19.907807 14.529955 20.134798 14.668561 20.248 14.889ZM 25.894 25.894L 27.373 27.373M 33.03 30.909C 33.598461 31.497569 33.590332 32.433129 33.01173 33.01173C 32.433129 33.590332 31.497569 33.598461 30.909001 33.030001L 26.666 28.788C 26.470809 28.59275 26.470809 28.27625 26.666 28.081L 28.081 26.666C 28.27625 26.470809 28.59275 26.470809 28.788 26.666Z"></path></g></g></g><g id="g-root-tx_continuo_1hsko17bzx8h-stroke" data-item-order="0" transform="translate(81, 99)"></g><g id="g-root-sear_1qcl0x417bx4aq-stroke" data-item-order="0" transform="translate(393, 411)"><g id="sear_1qcl0x417bx4aq-stroke" fill="none" stroke-linecap="round" stroke-linejoin="round" stroke-miterlimit="4" stroke="#ffffff" stroke-width="2"><g><path d="M 23 17.24L 11 17.24C 10.723858 17.24 10.5 17.016142 10.5 16.74L 10.5 13.74C 10.5 13.463858 10.723858 13.24 11 13.24L 23 13.24M 25.02 14.94C 25.019679 16.696492 26.443508 18.120581 28.2 18.120581C 29.956493 18.120581 31.380321 16.696492 31.38 14.94C 31.380321 13.183508 29.956493 11.759419 28.2 11.759419C 26.443508 11.759419 25.019679 13.183508 25.02 14.94ZM 30.449 17.189L 33.5 20.24M 10.5 26.24C 10.5 26.792285 10.947715 27.24 11.5 27.24C 12.052285 27.24 12.5 26.792285 12.5 26.24C 12.5 25.687715 12.052285 25.24 11.5 25.24C 10.947715 25.24 10.5 25.687715 10.5 26.24ZM 10.5 31.24C 10.5 31.792285 10.947715 32.24 11.5 32.24C 12.052285 32.24 12.5 31.792285 12.5 31.24C 12.5 30.687715 12.052285 30.24 11.5 30.24C 10.947715 30.24 10.5 30.687715 10.5 31.24ZM 14.5 26.24L 25.5 26.24M 10.5 21.24C 10.5 21.792285 10.947715 22.24 11.5 22.24C 12.052285 22.24 12.5 21.792285 12.5 21.24C 12.5 20.687715 12.052285 20.24 11.5 20.24C 10.947715 20.24 10.5 20.687715 10.5 21.24ZM 14.5 21.24L 25.5 21.24M 14.5 31.24L 25.5 31.24"></path></g></g></g><g id="g-root-tx_spotcirc_m9u9d417bzw9b-stroke" data-item-order="0" transform="translate(177, 39)"></g><g id="g-root-tx_aipowere_1lrrt9k17bzvgi-stroke" data-item-order="0" transform="translate(15, 267)"></g></g></g></svg>