<?xml version="1.0" encoding="utf-8" standalone="yes"?>
<!DOCTYPE svg PUBLIC "-//W3C//DTD SVG 1.1//EN" "http://www.w3.org/Graphics/SVG/1.1/DTD/svg11.dtd">
<svg width="662" height="650" viewBox="0 0 662 650" style="fill:none;stroke:none;fill-rule:evenodd;clip-rule:evenodd;stroke-linecap:round;stroke-linejoin:round;stroke-miterlimit:1.5;" version="1.1" xmlns="http://www.w3.org/2000/svg" xmlns:xlink="http://www.w3.org/1999/xlink"><style id="fontImports">@import url("https://fonts.googleapis.com/css2?family=Roboto:wght@400;700&amp;display=block");</style><rect id="" x="0" y="0" width="662" height="650" style="fill: #ffffff;"></rect><g id="items" style="isolation: isolate"><g id="blend" style="mix-blend-mode: normal"><g id="g-root-tf_dffumg14ju48w-fill" data-item-order="-427680" transform="translate(-9, -9)"><g id="tf_dffumg14ju48w-fill" stroke="none" fill="#ffffff"><g><path d="M 10 10L 670 10L 670 658L 10 658Z"></path></g></g></g><g id="g-root-3.cu_sy_meuxmw149yqro-fill" data-item-order="-149754" transform="translate(107, 117)"><g id="3.cu_sy_meuxmw149yqro-fill" stroke="none" fill="#1eabda"><g><path d="M 218 10L 10 370L 130 298L 218 145L 218 10Z"></path></g></g></g><g id="g-root-2.cu_sy_meuxmw149yqrp-fill" data-item-order="-149750" transform="translate(107, 405)"><g id="2.cu_sy_meuxmw149yqrp-fill" stroke="none" fill="#de8431"><g><path d="M 10 82L 426 82L 306 10L 130 10L 10 82Z"></path></g></g></g><g id="g-root-1.cu_sy_dj7xe0149yrke-fill" data-item-order="-149746" transform="translate(315, 117)"><g id="1.cu_sy_dj7xe0149yrke-fill" stroke="none" fill="#3cc583"><g><path d="M 218 370L 10 10L 10.000015 145L 98 298L 218 370Z"></path></g></g></g><g id="g-root-tx_enhancin_93ef9k149yscn-fill" data-item-order="0" transform="translate(21, 21)"><g id="tx_enhancin_93ef9k149yscn-fill" stroke="none" fill="#484848"><g><text style="font: bold 25px Roboto, sans-serif; white-space: pre;" font-weight="bold" font-size="25px" font-family="Roboto, sans-serif"><tspan x="12.57" y="39.6" dominant-baseline="ideographic">Enhancing Shopify Success with AI-Driven SEO and </tspan><tspan x="248.91" y="69.6" dominant-baseline="ideographic">Analytics</tspan></text></g></g></g><g id="g-root-tx_automate_4hxf4814ju619-fill" data-item-order="0" transform="translate(51, 195)"><g id="tx_automate_4hxf4814ju619-fill" stroke="none" fill="#32444a"><g><text style="font: bold 20px Roboto, sans-serif; white-space: pre;" font-weight="bold" font-size="20px" font-family="Roboto, sans-serif"><tspan x="28.81" y="34" dominant-baseline="ideographic">Automated </tspan><tspan x="12.84" y="58" dominant-baseline="ideographic">Optimization</tspan></text></g></g></g><g id="g-root-tx_aipowere_18hjweg14ju3gn-fill" data-item-order="0" transform="translate(459, 219)"><g id="tx_aipowere_18hjweg14ju3gn-fill" stroke="none" fill="#374840"><g><text style="font: bold 20px Roboto, sans-serif; white-space: pre;" font-weight="bold" font-size="20px" font-family="Roboto, sans-serif"><tspan x="12" y="34" dominant-baseline="ideographic">AI-Powered SEO</tspan></text></g></g></g><g id="g-root-tx_continuo_1hbbhe014ju3nm-fill" data-item-order="0" transform="translate(15, 255)"><g id="tx_continuo_1hbbhe014ju3nm-fill" stroke="none" fill="#32444a"><g><text style="font: 11.7px Roboto, sans-serif; white-space: pre;" font-size="11.7px" font-family="Roboto, sans-serif"><tspan x="15.94" y="26.6" dominant-baseline="ideographic">Continuously improves store </tspan><tspan x="49.2" y="40.6" dominant-baseline="ideographic">performance and user </tspan><tspan x="104.34" y="54.6" dominant-baseline="ideographic">experience.</tspan></text></g></g></g><g id="g-root-tx_automati_htdxhk14ju4gc-fill" data-item-order="0" transform="translate(459, 255)"><g id="tx_automati_htdxhk14ju4gc-fill" stroke="none" fill="#374840"><g><text style="font: 11.7px Roboto, sans-serif; white-space: pre;" font-size="11.7px" font-family="Roboto, sans-serif"><tspan x="12" y="26.6" dominant-baseline="ideographic">Automatically optimizes store </tspan><tspan x="12" y="40.6" dominant-baseline="ideographic">content for maximum search </tspan><tspan x="12" y="54.6" dominant-baseline="ideographic">visibility.</tspan></text></g></g></g><g id="g-root-2_4gogy014jojym-fill" data-item-order="0" transform="translate(219, 285)"></g><g id="g-root-page_djuhmw14a1lak-fill" data-item-order="0" transform="translate(363, 285)"></g><g id="g-root-circ_i0wxxk149rpcb-fill" data-item-order="0" transform="translate(279, 321)"></g><g id="g-root-bars_1lqiifc14ju615-fill" data-item-order="0" transform="translate(291, 417)"></g><g id="g-root-tx_smartana_1q87ft414ju49a-fill" data-item-order="0" transform="translate(237, 519)"><g id="tx_smartana_1q87ft414ju49a-fill" stroke="none" fill="#424736"><g><text style="font: bold 20px Roboto, sans-serif; white-space: pre;" font-weight="bold" font-size="20px" font-family="Roboto, sans-serif"><tspan x="16.47" y="34" dominant-baseline="ideographic">Smart Analytics</tspan></text></g></g></g><g id="g-root-tx_provides_13zuz0o14ju58j-fill" data-item-order="0" transform="translate(231, 555)"><g id="tx_provides_13zuz0o14ju58j-fill" stroke="none" fill="#424736"><g><text style="font: 11.7px Roboto, sans-serif; white-space: pre;" font-size="11.7px" font-family="Roboto, sans-serif"><tspan x="12.94" y="27.6" dominant-baseline="ideographic">Provides real-time insights into </tspan><tspan x="15.74" y="41.6" dominant-baseline="ideographic">store performance and traffic.</tspan></text></g></g></g><g id="g-root-tf_dffumg14ju48w-stroke" data-item-order="-427680" transform="translate(-9, -9)"></g><g id="g-root-3.cu_sy_meuxmw149yqro-stroke" data-item-order="-149754" transform="translate(107, 117)"><g id="3.cu_sy_meuxmw149yqro-stroke" fill="none" stroke-linecap="round" stroke-linejoin="round" stroke-miterlimit="4" stroke="#ffffff" stroke-width="2"><g><path d="M 218 10L 10 370L 130 298L 218 145L 218 10Z"></path></g></g></g><g id="g-root-2.cu_sy_meuxmw149yqrp-stroke" data-item-order="-149750" transform="translate(107, 405)"><g id="2.cu_sy_meuxmw149yqrp-stroke" fill="none" stroke-linecap="round" stroke-linejoin="round" stroke-miterlimit="4" stroke="#ffffff" stroke-width="2"><g><path d="M 10 82L 426 82L 306 10L 130 10L 10 82Z"></path></g></g></g><g id="g-root-1.cu_sy_dj7xe0149yrke-stroke" data-item-order="-149746" transform="translate(315, 117)"><g id="1.cu_sy_dj7xe0149yrke-stroke" fill="none" stroke-linecap="round" stroke-linejoin="round" stroke-miterlimit="4" stroke="#ffffff" stroke-width="2"><g><path d="M 218 370L 10 10L 10 145L 98 298L 218 370Z"></path></g></g></g><g id="g-root-tx_enhancin_93ef9k149yscn-stroke" data-item-order="0" transform="translate(21, 21)"></g><g id="g-root-tx_automate_4hxf4814ju619-stroke" data-item-order="0" transform="translate(51, 195)"></g><g id="g-root-tx_aipowere_18hjweg14ju3gn-stroke" data-item-order="0" transform="translate(459, 219)"></g><g id="g-root-tx_continuo_1hbbhe014ju3nm-stroke" data-item-order="0" transform="translate(15, 255)"></g><g id="g-root-tx_automati_htdxhk14ju4gc-stroke" data-item-order="0" transform="translate(459, 255)"></g><g id="g-root-2_4gogy014jojym-stroke" data-item-order="0" transform="translate(219, 285)"><g id="2_4gogy014jojym-stroke" fill="none" stroke-linecap="round" stroke-linejoin="round" stroke-miterlimit="4" stroke="#ffffff" stroke-width="2"><g><path d="M 29 34.001999C 29 36.763424 31.238577 39.001999 34 39.001999C 36.761425 39.001999 39 36.763424 39 34.001999C 39 31.240576 36.761425 29.002001 34 29.002001C 31.238577 29.002001 29 31.240576 29 34.001999ZM 18 34.001999C 18 42.838554 25.163445 50.001999 34 50.001999C 42.836555 50.001999 50 42.838554 50 34.001999C 50 25.165443 42.836555 18.001999 34 18.001999C 25.163445 18.001999 18 25.165443 18 34.001999ZM 34 18.001999L 34 11.002M 45.313999 22.688L 50.264 17.737999M 50 34.001999L 57 34.001999M 45.313999 45.316002L 50.264 50.265999M 34 50.001999L 34 57.001999M 22.686001 45.316002L 17.736 50.265999M 18 34.001999L 11 34.001999M 22.686001 22.688L 17.736 17.737999"></path></g></g></g><g id="g-root-page_djuhmw14a1lak-stroke" data-item-order="0" transform="translate(363, 285)"><g id="page_djuhmw14a1lak-stroke" fill="none" stroke-linecap="round" stroke-linejoin="round" stroke-miterlimit="4" stroke="#ffffff" stroke-width="2"><g><path d="M 34 50.5L 13 50.5C 11.895431 50.5 11 49.604568 11 48.5L 11 16.5C 11 15.395431 11.895431 14.5 13 14.5L 51 14.5C 52.104568 14.5 53 15.395431 53 16.5L 53 30.299999M 15 31.5L 17 33.5L 23 27.5M 26 32.5L 33 32.5M 29 28.5L 35 28.5M 11 22.5L 53 22.5M 35 39.557999C 35 44.560593 39.055405 48.615997 44.057999 48.615997C 49.060593 48.615997 53.115997 44.560593 53.115997 39.557999C 53.115997 34.555405 49.060593 30.5 44.057999 30.5C 39.055405 30.5 35 34.555405 35 39.557999ZM 57 52.5L 50.504002 46.004002"></path></g></g></g><g id="g-root-circ_i0wxxk149rpcb-stroke" data-item-order="0" transform="translate(279, 321)"><g id="circ_i0wxxk149rpcb-stroke" fill="none" stroke-linecap="round" stroke-linejoin="round" stroke-miterlimit="4" stroke="#3a4455" stroke-width="2"><g><path d="M 34 20.5L 58 20.5C 58 20.5 61 20.5 61 23.5L 61 68.5C 61 68.5 61 71.5 58 71.5L 34 71.5C 34 71.5 31 71.5 31 68.5L 31 23.5C 31 23.5 31 20.5 34 20.5M 37 20.5L 37 11.5M 46 20.5L 46 11.5M 55 20.5L 55 11.5M 61 32.5L 70 32.5M 61 41.5L 70 41.5M 61 50.5L 70 50.5M 61 59.5L 70 59.5M 55 71.5L 55 80.5M 46 71.5L 46 80.5M 37 71.5L 37 80.5M 31 59.5L 22 59.5M 31 50.5L 22 50.5M 31 41.5L 22 41.5M 31 32.5L 22 32.5"></path></g></g></g><g id="g-root-bars_1lqiifc14ju615-stroke" data-item-order="0" transform="translate(291, 417)"><g id="bars_1lqiifc14ju615-stroke" fill="none" stroke-linecap="round" stroke-linejoin="round" stroke-miterlimit="4" stroke="#ffffff" stroke-width="2"><g><path d="M 10.882 49L 56.882 49M 18.882 49L 18.882 40C 18.882 39.447716 18.434284 39 17.882 39L 13.882 39C 13.329716 39 12.882 39.447716 12.882 40L 12.882 49M 30.882 49L 30.882 30C 30.882 29.447716 30.434284 29 29.882 29L 25.882 29C 25.329716 29 24.882 29.447716 24.882 30L 24.882 49M 42.882 49L 42.882 34C 42.882 33.447716 42.434284 33 41.882 33L 37.882 33C 37.329716 33 36.882 33.447716 36.882 34L 36.882 49M 54.882 49L 54.882 20C 54.882 19.447716 54.434284 19 53.882 19L 49.882 19C 49.329716 19 48.882 19.447716 48.882 20L 48.882 49"></path></g></g></g><g id="g-root-tx_smartana_1q87ft414ju49a-stroke" data-item-order="0" transform="translate(237, 519)"></g><g id="g-root-tx_provides_13zuz0o14ju58j-stroke" data-item-order="0" transform="translate(231, 555)"></g></g></g></svg>