<svg viewBox="0 0 800 600" xmlns="http://www.w3.org/2000/svg" preserveAspectRatio="xMidYMid meet">
  <defs>
    <linearGradient id="dashboardBg" x1="0%" y1="0%" x2="100%" y2="100%">
      <stop offset="0%" style="stop-color:#065f46;stop-opacity:0.9"/>
      <stop offset="100%" style="stop-color:#0f172a;stop-opacity:1"/>
    </linearGradient>
    <linearGradient id="chartGreen" x1="0%" y1="0%" x2="100%" y2="100%">
      <stop offset="0%" style="stop-color:#10b981;stop-opacity:1"/>
      <stop offset="100%" style="stop-color:#059669;stop-opacity:1"/>
    </linearGradient>
    <linearGradient id="cardBg" x1="0%" y1="0%" x2="100%" y2="100%">
      <stop offset="0%" style="stop-color:#064e3b;stop-opacity:0.6"/>
      <stop offset="100%" style="stop-color:#1f2937;stop-opacity:0.8"/>
    </linearGradient>
    <filter id="glow">
      <feGaussianBlur stdDeviation="3" result="coloredBlur"/>
      <feMerge> 
        <feMergeNode in="coloredBlur"/>
        <feMergeNode in="SourceGraphic"/>
      </feMerge>
    </filter>
    <pattern id="gridPattern" width="20" height="20" patternUnits="userSpaceOnUse">
      <path d="M 20 0 L 0 0 0 20" fill="none" stroke="#10b981" stroke-width="0.5" opacity="0.1"/>
    </pattern>
  </defs>
  
  <!-- Background -->
  <rect width="800" height="600" fill="url(#dashboardBg)"/>
  <rect width="800" height="600" fill="url(#gridPattern)"/>
  
  <!-- Dashboard Header -->
  <rect x="20" y="20" width="760" height="60" rx="8" fill="url(#cardBg)" stroke="#10b981" stroke-width="1" opacity="0.8"/>
  <text x="40" y="45" font-family="Arial, sans-serif" font-size="18" font-weight="bold" fill="#10b981">AnalyticsCircuit Dashboard</text>
  <text x="40" y="65" font-family="Arial, sans-serif" font-size="12" fill="#6ee7b7">Real-time Business Intelligence</text>
  
  <!-- Status Indicators -->
  <circle cx="700" cy="45" r="4" fill="#10b981" filter="url(#glow)">
    <animate attributeName="opacity" values="1;0.5;1" dur="2s" repeatCount="indefinite"/>
  </circle>
  <text x="715" y="50" font-family="Arial, sans-serif" font-size="10" fill="#6ee7b7">Live</text>
  
  <!-- KPI Cards Row -->
  <g id="kpiCards">
    <!-- Revenue Card -->
    <rect x="20" y="100" width="180" height="120" rx="8" fill="url(#cardBg)" stroke="#10b981" stroke-width="1" opacity="0.9"/>
    <text x="30" y="125" font-family="Arial, sans-serif" font-size="12" fill="#6ee7b7">Monthly Revenue</text>
    <text x="30" y="150" font-family="Arial, sans-serif" font-size="28" font-weight="bold" fill="#10b981">$247K</text>
    <text x="30" y="170" font-family="Arial, sans-serif" font-size="10" fill="#34d399">↗ +34% vs last month</text>
    <path d="M30 185 L50 175 L70 165 L90 155 L110 150 L130 145 L150 140 L170 135" stroke="#10b981" stroke-width="2" fill="none"/>
    
    <!-- Conversion Rate Card -->
    <rect x="210" y="100" width="180" height="120" rx="8" fill="url(#cardBg)" stroke="#10b981" stroke-width="1" opacity="0.9"/>
    <text x="220" y="125" font-family="Arial, sans-serif" font-size="12" fill="#6ee7b7">Conversion Rate</text>
    <text x="220" y="150" font-family="Arial, sans-serif" font-size="28" font-weight="bold" fill="#10b981">8.9%</text>
    <text x="220" y="170" font-family="Arial, sans-serif" font-size="10" fill="#34d399">↗ +12% improvement</text>
    <circle cx="340" cy="180" r="25" fill="none" stroke="#064e3b" stroke-width="4"/>
    <circle cx="340" cy="180" r="25" fill="none" stroke="#10b981" stroke-width="4" stroke-dasharray="138.23" stroke-dashoffset="26.4" transform="rotate(-90 340 180)"/>
    
    <!-- ROI Card -->
    <rect x="400" y="100" width="180" height="120" rx="8" fill="url(#cardBg)" stroke="#10b981" stroke-width="1" opacity="0.9"/>
    <text x="410" y="125" font-family="Arial, sans-serif" font-size="12" fill="#6ee7b7">Marketing ROI</text>
    <text x="410" y="150" font-family="Arial, sans-serif" font-size="28" font-weight="bold" fill="#10b981">312%</text>
    <text x="410" y="170" font-family="Arial, sans-serif" font-size="10" fill="#34d399">↗ +89% optimization</text>
    <rect x="520" y="175" width="50" height="20" fill="#064e3b" rx="2"/>
    <rect x="520" y="175" width="35" height="20" fill="url(#chartGreen)" rx="2"/>
    
    <!-- Active Users Card -->
    <rect x="590" y="100" width="190" height="120" rx="8" fill="url(#cardBg)" stroke="#10b981" stroke-width="1" opacity="0.9"/>
    <text x="600" y="125" font-family="Arial, sans-serif" font-size="12" fill="#6ee7b7">Active Users</text>
    <text x="600" y="150" font-family="Arial, sans-serif" font-size="28" font-weight="bold" fill="#10b981">12.4K</text>
    <text x="600" y="170" font-family="Arial, sans-serif" font-size="10" fill="#34d399">↗ +156 new today</text>
    <!-- Mini line chart -->
    <path d="M610 185 L625 180 L640 175 L655 170 L670 172 L685 165 L700 160 L715 155 L730 150 L745 145 L760 140" stroke="#10b981" stroke-width="2" fill="none"/>
  </g>
  
  <!-- Main Charts Section -->
  <g id="mainCharts">
    <!-- Revenue Trend Chart -->
    <rect x="20" y="240" width="380" height="200" rx="8" fill="url(#cardBg)" stroke="#10b981" stroke-width="1" opacity="0.9"/>
    <text x="30" y="265" font-family="Arial, sans-serif" font-size="14" font-weight="bold" fill="#10b981">Revenue Trends</text>
    <text x="30" y="280" font-family="Arial, sans-serif" font-size="10" fill="#6ee7b7">Last 12 months</text>
    
    <!-- Chart axes -->
    <line x1="50" y1="300" x2="50" y2="420" stroke="#064e3b" stroke-width="1"/>
    <line x1="50" y1="420" x2="380" y2="420" stroke="#064e3b" stroke-width="1"/>
    
    <!-- Y-axis labels -->
    <text x="45" y="305" font-family="Arial, sans-serif" font-size="8" fill="#6ee7b7" text-anchor="end">300K</text>
    <text x="45" y="335" font-family="Arial, sans-serif" font-size="8" fill="#6ee7b7" text-anchor="end">200K</text>
    <text x="45" y="365" font-family="Arial, sans-serif" font-size="8" fill="#6ee7b7" text-anchor="end">100K</text>
    <text x="45" y="395" font-family="Arial, sans-serif" font-size="8" fill="#6ee7b7" text-anchor="end">50K</text>
    
    <!-- Revenue area chart -->
    <path d="M60 380 L90 370 L120 360 L150 350 L180 340 L210 330 L240 320 L270 310 L300 300 L330 290 L360 295 L380 285" stroke="#10b981" stroke-width="3" fill="none" filter="url(#glow)"/>
    <path d="M60 380 L90 370 L120 360 L150 350 L180 340 L210 330 L240 320 L270 310 L300 300 L330 290 L360 295 L380 285 L380 420 L60 420 Z" fill="url(#chartGreen)" opacity="0.3"/>
    
    <!-- Data points -->
    <circle cx="60" cy="380" r="3" fill="#10b981"/>
    <circle cx="120" cy="360" r="3" fill="#10b981"/>
    <circle cx="180" cy="340" r="3" fill="#10b981"/>
    <circle cx="240" cy="320" r="3" fill="#10b981"/>
    <circle cx="300" cy="300" r="3" fill="#10b981"/>
    <circle cx="360" cy="295" r="3" fill="#10b981"/>
    
    <!-- Channel Performance Pie Chart -->
    <rect x="420" y="240" width="360" height="200" rx="8" fill="url(#cardBg)" stroke="#10b981" stroke-width="1" opacity="0.9"/>
    <text x="430" y="265" font-family="Arial, sans-serif" font-size="14" font-weight="bold" fill="#10b981">Channel Performance</text>
    <text x="430" y="280" font-family="Arial, sans-serif" font-size="10" fill="#6ee7b7">Revenue by source</text>
    
    <!-- Pie chart -->
    <circle cx="550" cy="350" r="60" fill="#064e3b"/>
    <!-- Organic Search - 45% -->
    <path d="M550 290 A60 60 0 0 1 592.4 327.4 L550 350 Z" fill="#10b981"/>
    <!-- Paid Ads - 30% -->
    <path d="M592.4 327.4 A60 60 0 0 1 580 405.3 L550 350 Z" fill="#34d399"/>
    <!-- Social - 15% -->
    <path d="M580 405.3 A60 60 0 0 1 520 405.3 L550 350 Z" fill="#6ee7b7"/>
    <!-- Email - 10% -->
    <path d="M520 405.3 A60 60 0 1 1 550 290 L550 350 Z" fill="#a7f3d0"/>
    
    <!-- Legend -->
    <rect x="630" y="310" width="12" height="12" fill="#10b981"/>
    <text x="650" y="320" font-family="Arial, sans-serif" font-size="10" fill="#e5e7eb">Organic (45%)</text>
    <rect x="630" y="330" width="12" height="12" fill="#34d399"/>
    <text x="650" y="340" font-family="Arial, sans-serif" font-size="10" fill="#e5e7eb">Paid Ads (30%)</text>
    <rect x="630" y="350" width="12" height="12" fill="#6ee7b7"/>
    <text x="650" y="360" font-family="Arial, sans-serif" font-size="10" fill="#e5e7eb">Social (15%)</text>
    <rect x="630" y="370" width="12" height="12" fill="#a7f3d0"/>
    <text x="650" y="380" font-family="Arial, sans-serif" font-size="10" fill="#e5e7eb">Email (10%)</text>
  </g>
  
  <!-- Bottom Analytics Panel -->
  <rect x="20" y="460" width="760" height="120" rx="8" fill="url(#cardBg)" stroke="#10b981" stroke-width="1" opacity="0.9"/>
  <text x="30" y="485" font-family="Arial, sans-serif" font-size="14" font-weight="bold" fill="#10b981">Predictive Analytics</text>
  <text x="30" y="500" font-family="Arial, sans-serif" font-size="10" fill="#6ee7b7">AI-powered forecasting and insights</text>
  
  <!-- Prediction bars -->
  <g id="predictions">
    <text x="50" y="525" font-family="Arial, sans-serif" font-size="10" fill="#6ee7b7">Next Month Revenue</text>
    <rect x="50" y="530" width="150" height="8" fill="#064e3b" rx="4"/>
    <rect x="50" y="530" width="120" height="8" fill="url(#chartGreen)" rx="4"/>
    <text x="210" y="537" font-family="Arial, sans-serif" font-size="10" fill="#10b981">$298K (89% confidence)</text>
    
    <text x="50" y="555" font-family="Arial, sans-serif" font-size="10" fill="#6ee7b7">Lead Quality Score</text>
    <rect x="50" y="560" width="150" height="8" fill="#064e3b" rx="4"/>
    <rect x="50" y="560" width="135" height="8" fill="url(#chartGreen)" rx="4"/>
    <text x="210" y="567" font-family="Arial, sans-serif" font-size="10" fill="#10b981">92% (High Quality)</text>
    
    <!-- AI Insights Panel -->
    <rect x="400" y="515" width="360" height="50" fill="#0f172a" stroke="#10b981" stroke-width="1" rx="4" opacity="0.7"/>
    <text x="410" y="535" font-family="Arial, sans-serif" font-size="11" fill="#34d399">💡 AI Insight:</text>
    <text x="410" y="550" font-family="Arial, sans-serif" font-size="9" fill="#e5e7eb">Increasing mobile traffic by 23% - optimize mobile conversion flow</text>
    <text x="410" y="560" font-family="Arial, sans-serif" font-size="9" fill="#e5e7eb">Weekend campaigns show 34% higher ROI - schedule more weekend ads</text>
  </g>
  
  <!-- Animated elements -->
  <g id="animations">
    <!-- Pulsing data indicator -->
    <circle cx="750" cy="50" r="3" fill="#10b981" opacity="0.8">
      <animate attributeName="r" values="3;6;3" dur="2s" repeatCount="indefinite"/>
      <animate attributeName="opacity" values="0.8;0.3;0.8" dur="2s" repeatCount="indefinite"/>
    </circle>
    
    <!-- Moving data point -->
    <circle r="2" fill="#34d399">
      <animateMotion dur="8s" repeatCount="indefinite">
        <path d="M60 380 L90 370 L120 360 L150 350 L180 340 L210 330 L240 320 L270 310 L300 300 L330 290 L360 295 L380 285"/>
      </animateMotion>
    </circle>
  </g>
</svg>