<svg viewBox="0 0 800 600" xmlns="http://www.w3.org/2000/svg" preserveAspectRatio="xMidYMid meet">
  <defs>
    <linearGradient id="chatBg" x1="0%" y1="0%" x2="100%" y2="100%">
      <stop offset="0%" style="stop-color:#164e63;stop-opacity:0.9"/>
      <stop offset="100%" style="stop-color:#0f172a;stop-opacity:1"/>
    </linearGradient>
    <linearGradient id="chatCyan" x1="0%" y1="0%" x2="100%" y2="100%">
      <stop offset="0%" style="stop-color:#06b6d4;stop-opacity:1"/>
      <stop offset="100%" style="stop-color:#0891b2;stop-opacity:1"/>
    </linearGradient>
    <linearGradient id="cardBg" x1="0%" y1="0%" x2="100%" y2="100%">
      <stop offset="0%" style="stop-color:#155e75;stop-opacity:0.6"/>
      <stop offset="100%" style="stop-color:#1f2937;stop-opacity:0.8"/>
    </linearGradient>
    <linearGradient id="messageBg" x1="0%" y1="0%" x2="100%" y2="100%">
      <stop offset="0%" style="stop-color:#0e7490;stop-opacity:0.8"/>
      <stop offset="100%" style="stop-color:#164e63;stop-opacity:0.9"/>
    </linearGradient>
    <filter id="glow">
      <feGaussianBlur stdDeviation="3" result="coloredBlur"/>
      <feMerge> 
        <feMergeNode in="coloredBlur"/>
        <feMergeNode in="SourceGraphic"/>
      </feMerge>
    </filter>
    <pattern id="gridPattern" width="20" height="20" patternUnits="userSpaceOnUse">
      <path d="M 20 0 L 0 0 0 20" fill="none" stroke="#06b6d4" stroke-width="0.5" opacity="0.1"/>
    </pattern>
  </defs>
  
  <!-- Background -->
  <rect width="800" height="600" fill="url(#chatBg)"/>
  <rect width="800" height="600" fill="url(#gridPattern)"/>
  
  <!-- Chat Interface Header -->
  <rect x="20" y="20" width="760" height="60" rx="8" fill="url(#cardBg)" stroke="#06b6d4" stroke-width="1" opacity="0.9"/>
  <circle cx="50" cy="50" r="15" fill="url(#chatCyan)"/>
  <text x="42" y="56" font-family="Arial, sans-serif" font-size="16" fill="white">🤖</text>
  <text x="80" y="45" font-family="Arial, sans-serif" font-size="18" font-weight="bold" fill="#06b6d4">ChatCircuit AI Assistant</text>
  <text x="80" y="65" font-family="Arial, sans-serif" font-size="12" fill="#67e8f9">Online • Responding in real-time</text>
  
  <!-- Status Indicators -->
  <circle cx="700" cy="45" r="4" fill="#06b6d4" filter="url(#glow)">
    <animate attributeName="opacity" values="1;0.5;1" dur="2s" repeatCount="indefinite"/>
  </circle>
  <text x="715" y="50" font-family="Arial, sans-serif" font-size="10" fill="#67e8f9">Active</text>
  
  <!-- Main Chat Window -->
  <rect x="20" y="100" width="500" height="400" rx="8" fill="url(#cardBg)" stroke="#06b6d4" stroke-width="1" opacity="0.9"/>
  
  <!-- Chat Messages -->
  <g id="chatMessages">
    <!-- Bot welcome message -->
    <rect x="40" y="120" width="300" height="50" rx="15" fill="url(#messageBg)" opacity="0.8"/>
    <circle cx="60" cy="135" r="8" fill="#06b6d4"/>
    <text x="56" y="140" font-family="Arial, sans-serif" font-size="10" fill="white">🤖</text>
    <text x="80" y="135" font-family="Arial, sans-serif" font-size="11" fill="#67e8f9">ChatCircuit</text>
    <text x="80" y="150" font-family="Arial, sans-serif" font-size="10" fill="#e5e7eb">Hi! I'm here to help. What can I assist you with today?</text>
    <text x="80" y="165" font-family="Arial, sans-serif" font-size="8" fill="#9ca3af">2 minutes ago</text>
    
    <!-- User message -->
    <rect x="180" y="185" width="320" height="50" rx="15" fill="#0891b2" opacity="0.9"/>
    <text x="200" y="205" font-family="Arial, sans-serif" font-size="10" fill="white">I need help with pricing for your analytics package</text>
    <text x="200" y="220" font-family="Arial, sans-serif" font-size="8" fill="#cffafe">Just now</text>
    <circle cx="480" cy="200" r="8" fill="#22d3ee"/>
    <text x="476" y="205" font-family="Arial, sans-serif" font-size="10" fill="white">👤</text>
    
    <!-- Bot response with options -->
    <rect x="40" y="250" width="350" height="80" rx="15" fill="url(#messageBg)" opacity="0.8"/>
    <circle cx="60" cy="265" r="8" fill="#06b6d4"/>
    <text x="56" y="270" font-family="Arial, sans-serif" font-size="10" fill="white">🤖</text>
    <text x="80" y="265" font-family="Arial, sans-serif" font-size="11" fill="#67e8f9">ChatCircuit</text>
    <text x="80" y="280" font-family="Arial, sans-serif" font-size="10" fill="#e5e7eb">I'd be happy to help with AnalyticsCircuit pricing!</text>
    <text x="80" y="295" font-family="Arial, sans-serif" font-size="10" fill="#e5e7eb">What's your monthly revenue range?</text>
    
    <!-- Quick response buttons -->
    <rect x="90" y="305" width="80" height="20" rx="10" fill="#0891b2" stroke="#06b6d4" stroke-width="1"/>
    <text x="120" y="317" font-family="Arial, sans-serif" font-size="8" fill="white" text-anchor="middle">Under $50K</text>
    <rect x="180" y="305" width="80" height="20" rx="10" fill="#0891b2" stroke="#06b6d4" stroke-width="1"/>
    <text x="220" y="317" font-family="Arial, sans-serif" font-size="8" fill="white" text-anchor="middle">$50K-$200K</text>
    <rect x="270" y="305" width="80" height="20" rx="10" fill="#0891b2" stroke="#06b6d4" stroke-width="1"/>
    <text x="310" y="317" font-family="Arial, sans-serif" font-size="8" fill="white" text-anchor="middle">$200K+</text>
    
    <!-- Typing indicator -->
    <rect x="40" y="350" width="100" height="30" rx="15" fill="url(#messageBg)" opacity="0.6"/>
    <circle cx="60" cy="365" r="8" fill="#06b6d4"/>
    <text x="56" y="370" font-family="Arial, sans-serif" font-size="10" fill="white">🤖</text>
    <text x="80" y="370" font-family="Arial, sans-serif" font-size="9" fill="#67e8f9">typing</text>
    <circle cx="120" cy="365" r="2" fill="#67e8f9">
      <animate attributeName="opacity" values="1;0.3;1" dur="1s" repeatCount="indefinite"/>
    </circle>
    <circle cx="128" cy="365" r="2" fill="#67e8f9">
      <animate attributeName="opacity" values="1;0.3;1" dur="1s" begin="0.3s" repeatCount="indefinite"/>
    </circle>
    <circle cx="136" cy="365" r="2" fill="#67e8f9">
      <animate attributeName="opacity" values="1;0.3;1" dur="1s" begin="0.6s" repeatCount="indefinite"/>
    </circle>
  </g>
  
  <!-- Input Area -->
  <rect x="30" y="450" width="380" height="35" rx="17" fill="#1e293b" stroke="#06b6d4" stroke-width="1"/>
  <text x="45" y="470" font-family="Arial, sans-serif" font-size="11" fill="#9ca3af">Type your message...</text>
  <circle cx="480" cy="467" r="12" fill="url(#chatCyan)"/>
  <text x="476" y="472" font-family="Arial, sans-serif" font-size="10" fill="white">→</text>
  
  <!-- Analytics Panel -->
  <rect x="540" y="100" width="240" height="400" rx="8" fill="url(#cardBg)" stroke="#06b6d4" stroke-width="1" opacity="0.9"/>
  <text x="550" y="125" font-family="Arial, sans-serif" font-size="14" font-weight="bold" fill="#06b6d4">Live Analytics</text>
  
  <!-- Conversation Metrics -->
  <g id="analytics">
    <!-- Active Conversations -->
    <rect x="550" y="140" width="220" height="40" rx="4" fill="#155e75" opacity="0.6"/>
    <text x="560" y="155" font-family="Arial, sans-serif" font-size="10" fill="#67e8f9">Active Conversations</text>
    <text x="560" y="170" font-family="Arial, sans-serif" font-size="20" font-weight="bold" fill="#06b6d4">247</text>
    <text x="720" y="170" font-family="Arial, sans-serif" font-size="8" fill="#34d399">↗ +12%</text>
    
    <!-- Response Time -->
    <rect x="550" y="190" width="220" height="40" rx="4" fill="#155e75" opacity="0.6"/>
    <text x="560" y="205" font-family="Arial, sans-serif" font-size="10" fill="#67e8f9">Avg Response Time</text>
    <text x="560" y="220" font-family="Arial, sans-serif" font-size="20" font-weight="bold" fill="#06b6d4">0.8s</text>
    <text x="720" y="220" font-family="Arial, sans-serif" font-size="8" fill="#34d399">↗ 5x faster</text>
    
    <!-- Satisfaction Score -->
    <rect x="550" y="240" width="220" height="40" rx="4" fill="#155e75" opacity="0.6"/>
    <text x="560" y="255" font-family="Arial, sans-serif" font-size="10" fill="#67e8f9">Satisfaction Score</text>
    <text x="560" y="270" font-family="Arial, sans-serif" font-size="20" font-weight="bold" fill="#06b6d4">94%</text>
    <circle cx="720" cy="265" r="15" fill="none" stroke="#155e75" stroke-width="3"/>
    <circle cx="720" cy="265" r="15" fill="none" stroke="#06b6d4" stroke-width="3" stroke-dasharray="88.3" stroke-dashoffset="5.3" transform="rotate(-90 720 265)"/>
    
    <!-- Lead Conversion -->
    <rect x="550" y="290" width="220" height="40" rx="4" fill="#155e75" opacity="0.6"/>
    <text x="560" y="305" font-family="Arial, sans-serif" font-size="10" fill="#67e8f9">Lead Conversion</text>
    <text x="560" y="320" font-family="Arial, sans-serif" font-size="20" font-weight="bold" fill="#06b6d4">31%</text>
    <rect x="680" y="310" width="80" height="8" fill="#155e75" rx="4"/>
    <rect x="680" y="310" width="25" height="8" fill="url(#chatCyan)" rx="4"/>
  </g>
  
  <!-- Language Support -->
  <rect x="550" y="345" width="220" height="60" rx="4" fill="#155e75" opacity="0.6"/>
  <text x="560" y="360" font-family="Arial, sans-serif" font-size="10" fill="#67e8f9">Language Support</text>
  <text x="560" y="375" font-family="Arial, sans-serif" font-size="8" fill="#e5e7eb">🇺🇸 English  🇪🇸 Spanish  🇫🇷 French</text>
  <text x="560" y="390" font-family="Arial, sans-serif" font-size="8" fill="#e5e7eb">🇩🇪 German  🇯🇵 Japanese  🇨🇳 Chinese</text>
  <text x="560" y="400" font-family="Arial, sans-serif" font-size="8" fill="#06b6d4">+44 more languages</text>
  
  <!-- Intent Detection -->
  <rect x="550" y="415" width="220" height="70" rx="4" fill="#155e75" opacity="0.6"/>
  <text x="560" y="430" font-family="Arial, sans-serif" font-size="10" fill="#67e8f9">Current Intent Detection</text>
  
  <rect x="560" y="440" width="100" height="8" fill="#155e75" rx="4"/>
  <rect x="560" y="440" width="85" height="8" fill="url(#chatCyan)" rx="4"/>
  <text x="670" y="447" font-family="Arial, sans-serif" font-size="8" fill="#e5e7eb">Pricing Inquiry</text>
  
  <rect x="560" y="455" width="100" height="8" fill="#155e75" rx="4"/>
  <rect x="560" y="455" width="70" height="8" fill="url(#chatCyan)" rx="4"/>
  <text x="670" y="462" font-family="Arial, sans-serif" font-size="8" fill="#e5e7eb">Lead Qualification</text>
  
  <rect x="560" y="470" width="100" height="8" fill="#155e75" rx="4"/>
  <rect x="560" y="470" width="60" height="8" fill="url(#chatCyan)" rx="4"/>
  <text x="670" y="477" font-family="Arial, sans-serif" font-size="8" fill="#e5e7eb">Support Request</text>
  
  <!-- Animated elements -->
  <g id="animations">
    <!-- Pulsing new message indicator -->
    <circle cx="30" cy="110" r="4" fill="#06b6d4">
      <animate attributeName="opacity" values="1;0.3;1" dur="2s" repeatCount="indefinite"/>
    </circle>
    
    <!-- Data flow animation -->
    <circle r="2" fill="#67e8f9">
      <animateMotion dur="6s" repeatCount="indefinite">
        <path d="M520 200 Q540 180 560 200 Q580 220 600 200 Q620 180 640 200"/>
      </animateMotion>
    </circle>
  </g>
</svg>