<?xml version="1.0" encoding="utf-8" standalone="yes"?>
<!DOCTYPE svg PUBLIC "-//W3C//DTD SVG 1.1//EN" "http://www.w3.org/Graphics/SVG/1.1/DTD/svg11.dtd">
<svg width="722" height="521" viewBox="0 0 722 521" style="fill:none;stroke:none;fill-rule:evenodd;clip-rule:evenodd;stroke-linecap:round;stroke-linejoin:round;stroke-miterlimit:1.5;" version="1.1" xmlns="http://www.w3.org/2000/svg" xmlns:xlink="http://www.w3.org/1999/xlink"><style id="fontImports">@import url("https://fonts.googleapis.com/css2?family=Roboto:wght@400;700&amp;display=block");</style><rect id="" x="0" y="0" width="722" height="521" style="fill: #1ac6ff;"></rect><g id="items" style="isolation: isolate"><g id="blend" style="mix-blend-mode: normal"><g id="g-root-tf_90vajc17lr3lv-fill" data-item-order="-373680" transform="translate(-9, -9)"><g id="tf_90vajc17lr3lv-fill" stroke="none" fill="#1ac6ff"><g><path d="M 10 10L 730 10L 730 529L 10 529Z"></path></g></g></g><g id="g-root-0.cu_sy_v496vs17bubre-fill" data-item-order="-105834" transform="translate(308.9712219238281, 396.410888671875)"><g id="0.cu_sy_v496vs17bubre-fill" stroke="none" fill="#666666"><g><path d="M 39.434021 68.531982C 41.181321 72.624482 46.393221 75.588982 52.563521 75.588982C 58.733921 75.588982 63.945621 72.624482 65.692921 68.531982C 61.848921 69.560082 57.356021 70.158982 52.563521 70.158982C 47.771021 70.158982 43.278021 69.560082 39.434021 68.531982ZM 26.853699 59.329101C 27.802199 65.387901 38.944799 70.159201 52.563499 70.159201C 66.182299 70.159201 77.334799 65.378001 78.273399 59.329101C 72.232799 61.045901 62.967299 62.143901 52.563499 62.143901C 42.159799 62.143901 32.884299 61.045901 26.853699 59.329101ZM 14.8624 10C 11.7672 13.5834 10 16.7176 10 18.3446C 10 19.4925 10.8786 20.5905 12.4761 21.6186C 14.5728 22.9561 15.2717 25.6612 14.0336 27.8172C 13.2748 29.1348 12.8755 30.2327 12.8755 30.9814C 12.8755 32.1392 13.834 33.2472 15.5713 34.2653C 17.7279 35.523 18.5766 38.258 17.3385 40.434C 16.6596 41.6218 16.3001 42.6199 16.3001 43.2987C 16.3001 44.3467 17.1588 45.3449 18.7164 46.2732C 20.843 47.5309 21.4521 50.2858 20.3138 52.4718C 19.8546 53.3601 19.605 54.0988 19.605 54.6278C 19.605 58.7802 34.3619 62.144 52.5535 62.144C 70.7451 62.144 85.502 58.7802 85.502 54.6278C 85.502 54.0988 85.2623 53.3601 84.7931 52.4718C 83.6548 50.2858 84.274 47.5309 86.3907 46.2732C 87.9482 45.3549 88.8068 44.3467 88.8068 43.2987C 88.8068 42.6199 88.4474 41.6317 87.7685 40.434C 86.5304 38.2679 87.379 35.533 89.5356 34.2653C 91.2829 33.2472 92.2315 32.1392 92.2315 30.9814C 92.2315 30.2327 91.8321 29.1348 91.0733 27.8172C 89.8352 25.6612 90.5342 22.9461 92.6309 21.6186C 94.2384 20.6005 95.107 19.4925 95.107 18.3446C 95.107 16.7176 93.3398 13.5834 90.2446 10C 83.1357 13.0943 68.9279 15.2104 52.5435 15.2104C 36.1591 15.2104 21.9713 13.0943 14.8624 10Z"></path></g></g></g><g id="g-root-6.cu_sy_qp25ug17bu9dv-fill" data-item-order="-105830" transform="translate(351.36492919921875, 302.643310546875)"><g id="6.cu_sy_qp25ug17bu9dv-fill" stroke="none" fill="#92bd39"><g><path d="M 48.38 103.5078C 41.5007 106.7618 26.9036 109.0077 10.01 109.0077L 10 10L 103.2942 10.01C 96.9341 21.968 88.3575 32.5684 78.1036 41.2525C 62.2184 54.6977 53.1327 74.4813 52.6035 95.243C 52.5635 96.8102 52.234 98.3473 51.5451 99.7447C 50.8262 101.2021 49.7578 102.859 48.38 103.5078Z"></path></g></g></g><g id="g-root-6.line_sy_htf5lk17bua6k-fill" data-item-order="-105825" transform="translate(417, 363)"></g><g id="g-root-5.cu_sy_htf5lk17bua6l-fill" data-item-order="-105822" transform="translate(257.331787109375, 302.623291015625)"><g id="5.cu_sy_htf5lk17bua6l-fill" stroke="none" fill="#1eabda"><g><path d="M 35.001 41.0828C 24.8269 32.4287 16.3201 21.8881 10 10.01L 104.0331 10L 104.0231 108.9977C 87.1695 108.9977 72.5922 106.7618 65.703 103.5178C 64.7944 103.0886 64.0057 102.3 63.3767 101.4316C 62.1087 99.7048 61.4995 97.5887 61.4297 95.4427C 60.7607 74.4314 51.0759 54.7576 35.001 41.0828Z"></path></g></g></g><g id="g-root-5.line_sy_ddlnh417buayu-fill" data-item-order="-105817" transform="translate(183, 363)"></g><g id="g-root-4.cu_sy_ddlnh417buayv-fill" data-item-order="-105814" transform="translate(351.35498046875, 225.126220703125)"><g id="4.cu_sy_ddlnh417buayv-fill" stroke="none" fill="#3cc583"><g><path d="M 115.645 37.8487C 115.645 55.7957 111.172 72.7045 103.2943 87.5173L 10 87.5272L 10.01 10.01L 111.941 10C 114.347 18.8737 115.645 28.2065 115.645 37.8487Z"></path></g></g></g><g id="g-root-4.line_sy_8xs5co17bubr4-fill" data-item-order="-105809" transform="translate(471, 267)"></g><g id="g-root-3.cu_sy_8xs5co17bubr5-fill" data-item-order="-105806" transform="translate(245, 225.106201171875)"><g id="3.cu_sy_8xs5co17bubr5-fill" stroke="none" fill="#e0cb15"><g><path d="M 10.0211 35.7426C 10.2008 26.859 11.4788 18.2448 13.7352 10.01L 116.385 10L 116.375 87.5173L 22.3418 87.5173C 14.1546 72.1256 9.6516 54.4781 10.0211 35.7426Z"></path></g></g></g><g id="g-root-3.line_sy_2rm6w17bu9e2-fill" data-item-order="-105801" transform="translate(183, 267)"></g><g id="g-root-2.cu_sy_2rm6w17bu9e3-fill" data-item-order="-105798" transform="translate(351.3848876953125, 147.010009765625)"><g id="2.cu_sy_2rm6w17bu9e3-fill" stroke="none" fill="#de8431"><g><path d="M 10.01 10C 58.7538 10.1697 99.7398 43.2089 111.941 88.1162L 10 88.1261L 10.01 10Z"></path></g></g></g><g id="g-root-2.line_sy_1uo261k17bu9z8-fill" data-item-order="-105793" transform="translate(435, 159)"></g><g id="g-root-1.cu_sy_1uo261k17bu9z9-fill" data-item-order="-105790" transform="translate(248.72525024414062, 147)"><g id="1.cu_sy_1uo261k17bu9z9-fill" stroke="none" fill="#e55753"><g><path d="M 110.763 10L 112.64 10L 112.65 88.1162L 10 88.1162C 22.191 43.678 62.7876 10.6688 110.763 10Z"></path></g></g></g><g id="g-root-1.line_sy_1lsf5so17buary-fill" data-item-order="-105785" transform="translate(183, 159)"></g><g id="g-root-ribb_5urdk17lmupz-fill" data-item-order="0" transform="translate(387, 243)"></g><g id="g-root-appa_1umtb1417bvp58-fill" data-item-order="0" transform="translate(279, 243)"></g><g id="g-root-tx_transfor_1ltmvq017lr3m6-fill" data-item-order="0" transform="translate(27, 243)"><g id="tx_transfor_1ltmvq017lr3m6-fill" stroke="none" fill="#46432d"><g><text style="font: 20px Roboto, sans-serif; white-space: pre;" font-size="20px" font-family="Roboto, sans-serif"><tspan x="14.75" y="34" dominant-baseline="ideographic">Transformation </tspan><tspan x="80.76" y="58" dominant-baseline="ideographic">Journey</tspan></text></g></g></g><g id="g-root-tx_successs_zn5u6w17lr3lt-fill" data-item-order="0" transform="translate(531, 255)"><g id="tx_successs_zn5u6w17lr3lt-fill" stroke="none" fill="#374840"><g><text style="font: 20px Roboto, sans-serif; white-space: pre;" font-size="20px" font-family="Roboto, sans-serif"><tspan x="12" y="34" dominant-baseline="ideographic">Success Stories</tspan></text></g></g></g><g id="g-root-page_3zc4817lr28c-fill" data-item-order="0" transform="translate(369, 171)"></g><g id="g-root-decr_zpp1y017bq328-fill" data-item-order="0" transform="translate(297, 171)"></g><g id="g-root-circ_1hjgys817byjnz-fill" data-item-order="0" transform="translate(303, 321)"></g><g id="g-root-mana_18ml0d417c2pl9-fill" data-item-order="0" transform="translate(363, 321)"></g><g id="g-root-tx_faqs_18isufs17lr21b-fill" data-item-order="0" transform="translate(111, 363)"><g id="tx_faqs_18isufs17lr21b-fill" stroke="none" fill="#32444a"><g><text style="font: 20px Roboto, sans-serif; white-space: pre;" font-size="20px" font-family="Roboto, sans-serif"><tspan x="21.58" y="34" dominant-baseline="ideographic">FAQs</tspan></text></g></g></g><g id="g-root-tx_solution_zn5u6w17lr3lu-fill" data-item-order="0" transform="translate(531, 147)"><g id="tx_solution_zn5u6w17lr3lu-fill" stroke="none" fill="#4c4034"><g><text style="font: 20px Roboto, sans-serif; white-space: pre;" font-size="20px" font-family="Roboto, sans-serif"><tspan x="12" y="34" dominant-baseline="ideographic">Solutions</tspan></text></g></g></g><g id="g-root-tx_business_1up9vyw17lr2th-fill" data-item-order="0" transform="translate(15, 147)"><g id="tx_business_1up9vyw17lr2th-fill" stroke="none" fill="#543a3a"><g><text style="font: 20px Roboto, sans-serif; white-space: pre;" font-size="20px" font-family="Roboto, sans-serif"><tspan x="15.96" y="34" dominant-baseline="ideographic">Business Impact</tspan></text></g></g></g><g id="g-root-tx_spotcirc_1hclno817bubk7-fill" data-item-order="0" transform="translate(231, 27)"><g id="tx_spotcirc_1hclno817bubk7-fill" stroke="none" fill="#484848"><g><text style="font: bold 25px Roboto, sans-serif; white-space: pre;" font-weight="bold" font-size="25px" font-family="Roboto, sans-serif"><tspan x="12.01" y="42.6" dominant-baseline="ideographic">SpotCircuit Overview</tspan></text></g></g></g><g id="g-root-tx_gettings_142zcbc17lr2tk-fill" data-item-order="0" transform="translate(531, 363)"><g id="tx_gettings_142zcbc17lr2tk-fill" stroke="none" fill="#424736"><g><text style="font: 20px Roboto, sans-serif; white-space: pre;" font-size="20px" font-family="Roboto, sans-serif"><tspan x="12" y="34" dominant-baseline="ideographic">Getting Started</tspan></text></g></g></g><g id="g-root-tf_90vajc17lr3lv-stroke" data-item-order="-373680" transform="translate(-9, -9)"></g><g id="g-root-0.cu_sy_v496vs17bubre-stroke" data-item-order="-105834" transform="translate(308.9712219238281, 396.410888671875)"><g id="0.cu_sy_v496vs17bubre-stroke" fill="none" stroke-linecap="round" stroke-linejoin="round" stroke-miterlimit="4" stroke="#ffffff" stroke-width="2"><g><path d="M 39.434021 68.531982C 41.181321 72.624482 46.393221 75.588982 52.563521 75.588982C 58.733921 75.588982 63.945621 72.624482 65.692921 68.531982C 61.848921 69.560082 57.356021 70.158982 52.563521 70.158982C 47.771021 70.158982 43.278021 69.560082 39.434021 68.531982ZM 26.853699 59.329101C 27.802199 65.387901 38.944799 70.159201 52.563499 70.159201C 66.182299 70.159201 77.334799 65.378001 78.273399 59.329101C 72.232799 61.045901 62.967299 62.143901 52.563499 62.143901C 42.159799 62.143901 32.884299 61.045901 26.853699 59.329101ZM 14.8624 10C 11.7672 13.5834 10 16.7176 10 18.3446C 10 19.4925 10.8786 20.5905 12.4761 21.6186C 14.5728 22.9561 15.2717 25.6612 14.0336 27.8172C 13.2748 29.1348 12.8755 30.2327 12.8755 30.9814C 12.8755 32.1392 13.834 33.2472 15.5713 34.2653C 17.7279 35.523 18.5766 38.258 17.3385 40.434C 16.6596 41.6218 16.3001 42.6199 16.3001 43.2987C 16.3001 44.3467 17.1588 45.3449 18.7164 46.2732C 20.843 47.5309 21.4521 50.2858 20.3138 52.4718C 19.8546 53.3602 19.605 54.0988 19.605 54.6278C 19.605 58.7802 34.3619 62.144 52.5535 62.144C 70.7451 62.144 85.502 58.7802 85.502 54.6278C 85.502 54.0988 85.2623 53.3602 84.7931 52.4718C 83.6548 50.2858 84.274 47.5309 86.3907 46.2732C 87.9482 45.3549 88.8068 44.3467 88.8068 43.2987C 88.8068 42.6199 88.4474 41.6317 87.7685 40.434C 86.5304 38.2679 87.379 35.533 89.5356 34.2653C 91.2829 33.2472 92.2315 32.1392 92.2315 30.9814C 92.2315 30.2327 91.8321 29.1348 91.0733 27.8172C 89.8352 25.6612 90.5342 22.9461 92.6309 21.6186C 94.2384 20.6005 95.107 19.4925 95.107 18.3446C 95.107 16.7176 93.3398 13.5834 90.2446 10C 83.1357 13.0943 68.9279 15.2104 52.5435 15.2104C 36.1591 15.2104 21.9713 13.0943 14.8624 10ZM 16.30011 43.298584C 16.30011 47.870184 32.53481 51.573384 52.56351 51.573384C 72.59221 51.573384 88.82681 47.870184 88.82681 43.298584M 12.875549 30.991455C 12.875549 35.992255 30.647749 40.044755 52.563549 40.044755C 74.479249 40.044755 92.251549 35.992255 92.251549 30.991455M 10 18.344482C 10 23.704582 29.0602 28.056582 52.5635 28.056582C 76.0668 28.056582 95.127 23.704582 95.127 18.344482"></path></g></g></g><g id="g-root-6.cu_sy_qp25ug17bu9dv-stroke" data-item-order="-105830" transform="translate(351.36492919921875, 302.643310546875)"><g id="6.cu_sy_qp25ug17bu9dv-stroke" fill="none" stroke-linecap="round" stroke-linejoin="round" stroke-miterlimit="4" stroke="#ffffff" stroke-width="2"><g><path d="M 10 10L 103.2942 10.01C 96.9341 21.968 88.3575 32.5684 78.1036 41.2525C 62.2184 54.6977 53.1327 74.4813 52.6035 95.243C 52.5635 96.8101 52.234 98.3473 51.5451 99.7447C 50.8262 101.2021 49.7578 102.859 48.38 103.5078C 41.5007 106.7618 26.9036 109.0077 10.01 109.0077L 10 10Z"></path></g></g></g><g id="g-root-6.line_sy_htf5lk17bua6k-stroke" data-item-order="-105825" transform="translate(417, 363)"><g id="6.line_sy_htf5lk17bua6k-stroke" fill="none" stroke-linecap="round" stroke-linejoin="round" stroke-miterlimit="4" stroke="#484848" stroke-width="2"><g><path d="M 112.000034 22.000034L 22.000034 22.000034L 11.410034 11.410034"></path><path d="M 20.210034 11.110034L 11.110034 11.110034L 11.110034 20.210034" stroke-dasharray="none"></path></g></g></g><g id="g-root-5.cu_sy_htf5lk17bua6l-stroke" data-item-order="-105822" transform="translate(257.331787109375, 302.623291015625)"><g id="5.cu_sy_htf5lk17bua6l-stroke" fill="none" stroke-linecap="round" stroke-linejoin="round" stroke-miterlimit="4" stroke="#ffffff" stroke-width="2"><g><path d="M 104.0331 10L 104.0231 108.9977C 87.1695 108.9977 72.5922 106.7618 65.703 103.5178C 64.7944 103.0886 64.0057 102.3 63.3767 101.4316C 62.1087 99.7048 61.4995 97.5887 61.4297 95.4427C 60.7607 74.4314 51.0759 54.7576 35.001 41.0828C 24.8269 32.4287 16.3201 21.8881 10 10.01L 104.0331 10Z"></path></g></g></g><g id="g-root-5.line_sy_ddlnh417buayu-stroke" data-item-order="-105817" transform="translate(183, 363)"><g id="5.line_sy_ddlnh417buayu-stroke" fill="none" stroke-linecap="round" stroke-linejoin="round" stroke-miterlimit="4" stroke="#484848" stroke-width="2"><g><path d="M 10 22.000034L 100 22.000034L 110.59 11.410034"></path><path d="M 110.9 20.210034L 110.9 11.110034L 101.7 11.110034" stroke-dasharray="none"></path></g></g></g><g id="g-root-4.cu_sy_ddlnh417buayv-stroke" data-item-order="-105814" transform="translate(351.35498046875, 225.126220703125)"><g id="4.cu_sy_ddlnh417buayv-stroke" fill="none" stroke-linecap="round" stroke-linejoin="round" stroke-miterlimit="4" stroke="#ffffff" stroke-width="2"><g><path d="M 10.01 10.01L 111.9507 10L 111.9407 10M 10.01 10.01L 111.9407 10M 10.01 10.01L 10 87.5272L 103.2943 87.5173C 111.172 72.7045 115.645 55.7957 115.645 37.8487C 115.645 28.2065 114.3469 18.8737 111.9407 10"></path></g></g></g><g id="g-root-4.line_sy_8xs5co17bubr4-stroke" data-item-order="-105809" transform="translate(471, 267)"><g id="4.line_sy_8xs5co17bubr4-stroke" fill="none" stroke-linecap="round" stroke-linejoin="round" stroke-miterlimit="4" stroke="#484848" stroke-width="2"><g><path d="M 58 10L 12 10"></path><path d="M 18 3.5L 11.5 10L 18 16.5" stroke-dasharray="none"></path></g></g></g><g id="g-root-3.cu_sy_8xs5co17bubr5-stroke" data-item-order="-105806" transform="translate(245, 225.106201171875)"><g id="3.cu_sy_8xs5co17bubr5-stroke" fill="none" stroke-linecap="round" stroke-linejoin="round" stroke-miterlimit="4" stroke="#ffffff" stroke-width="2"><g><path d="M 116.3749 87.5173L 116.3849 10L 13.7352 10.01C 11.4788 18.2448 10.2008 26.859 10.0211 35.7426C 9.6516 54.4781 14.1546 72.1256 22.3418 87.5173L 116.3749 87.5173Z"></path></g></g></g><g id="g-root-3.line_sy_2rm6w17bu9e2-stroke" data-item-order="-105801" transform="translate(183, 267)"><g id="3.line_sy_2rm6w17bu9e2-stroke" fill="none" stroke-linecap="round" stroke-linejoin="round" stroke-miterlimit="4" stroke="#484848" stroke-width="2"><g><path d="M 10 10L 56 10"></path><path d="M 50 16.5L 56.5 10L 50 3.5" stroke-dasharray="none"></path></g></g></g><g id="g-root-2.cu_sy_2rm6w17bu9e3-stroke" data-item-order="-105798" transform="translate(351.3848876953125, 147.010009765625)"><g id="2.cu_sy_2rm6w17bu9e3-stroke" fill="none" stroke-linecap="round" stroke-linejoin="round" stroke-miterlimit="4" stroke="#ffffff" stroke-width="2"><g><path d="M 10 88.1261L 10.01 10C 58.7538 10.1697 99.7398 43.2089 111.9407 88.1162L 10 88.1261Z"></path></g></g></g><g id="g-root-2.line_sy_1uo261k17bu9z8-stroke" data-item-order="-105793" transform="translate(435, 159)"><g id="2.line_sy_1uo261k17bu9z8-stroke" fill="none" stroke-linecap="round" stroke-linejoin="round" stroke-miterlimit="4" stroke="#484848" stroke-width="2"><g><path d="M 94.000034 10L 22.000034 10L 11.410034 20.59"></path><path d="M 11.110034 11.7L 11.110034 20.9L 20.210034 20.9" stroke-dasharray="none"></path></g></g></g><g id="g-root-1.cu_sy_1uo261k17bu9z9-stroke" data-item-order="-105790" transform="translate(248.72525024414062, 147)"><g id="1.cu_sy_1uo261k17bu9z9-stroke" fill="none" stroke-linecap="round" stroke-linejoin="round" stroke-miterlimit="4" stroke="#ffffff" stroke-width="2"><g><path d="M 112.6497 88.1162L 10 88.1162C 22.191 43.678 62.7876 10.6688 110.7626 10C 111.3916 10 112.0107 10 112.6397 10L 112.6497 88.1162Z"></path></g></g></g><g id="g-root-1.line_sy_1lsf5so17buary-stroke" data-item-order="-105785" transform="translate(183, 159)"><g id="1.line_sy_1lsf5so17buary-stroke" fill="none" stroke-linecap="round" stroke-linejoin="round" stroke-miterlimit="4" stroke="#484848" stroke-width="2"><g><path d="M 10 10L 82 10L 92.59 20.59"></path><path d="M 83.7 20.9L 92.9 20.9L 92.9 11.7" stroke-dasharray="none"></path></g></g></g><g id="g-root-ribb_5urdk17lmupz-stroke" data-item-order="0" transform="translate(387, 243)"><g id="ribb_5urdk17lmupz-stroke" fill="none" stroke-linecap="round" stroke-linejoin="round" stroke-miterlimit="4" stroke="#ffffff" stroke-width="2"><g><path d="M 16.222 31.051001L 10.84 40.2715C 10.633 40.628502 10.798 40.863998 11.2045 40.795002L 16.241499 39.941502L 17.987499 44.741501C 18.1285 45.128502 18.4165 45.156998 18.628 44.801498L 23.2255 37.079498M 39.778 31.051001L 45.16 40.2715C 45.366997 40.628502 45.202 40.863998 44.795502 40.795002L 39.758499 39.941502L 38.012497 44.741501C 37.871498 45.128502 37.5835 45.156998 37.371998 44.801498L 32.774498 37.079498M 14.5 24.448C 14.5 31.903845 20.544157 37.947998 28 37.947998C 35.455841 37.947998 41.5 31.903845 41.5 24.448C 41.5 16.992157 35.455841 10.948 28 10.948C 20.544157 10.948 14.5 16.992157 14.5 24.448ZM 33.91 20.743L 26.83 27.823C 26.390602 28.26268 25.677898 28.26268 25.238501 27.823L 22.658501 25.243"></path></g></g></g><g id="g-root-appa_1umtb1417bvp58-stroke" data-item-order="0" transform="translate(279, 243)"><g id="appa_1umtb1417bvp58-stroke" fill="none" stroke-linecap="round" stroke-linejoin="round" stroke-miterlimit="4" stroke="#ffffff" stroke-width="2"><g><path d="M 29.5 40L 13.75 40C 12.093145 40 10.75 38.656857 10.75 37L 10.75 13.75C 10.75 12.093145 12.093145 10.75 13.75 10.75L 42.25 10.75C 43.906857 10.75 45.25 12.093145 45.25 13.75L 45.25 30.25M 10.75 18.25L 45.25 18.25M 16 14.125C 16.207108 14.125 16.375 14.292893 16.375 14.5C 16.375 14.707107 16.207108 14.875 16 14.875C 15.792893 14.875 15.625 14.707107 15.625 14.5C 15.625 14.292893 15.792893 14.125 16 14.125M 20.5 14.125C 20.707108 14.125 20.875 14.292893 20.875 14.5C 20.875 14.707107 20.707108 14.875 20.5 14.875C 20.292892 14.875 20.125 14.707107 20.125 14.5C 20.125 14.292893 20.292892 14.125 20.5 14.125M 25 14.125C 25.207108 14.125 25.375 14.292893 25.375 14.5C 25.375 14.707107 25.207108 14.875 25 14.875C 24.792892 14.875 24.625 14.707107 24.625 14.5C 24.625 14.292893 24.792892 14.125 25 14.125M 33.25 28.75L 36.25 28.75L 35.033501 23.8855C 34.86631 23.218103 34.266518 22.750019 33.578499 22.75L 30.25 22.75C 30.25 23.992641 29.242641 25 28 25C 26.75736 25 25.75 23.992641 25.75 22.75L 22.421501 22.75C 21.73348 22.750019 21.133688 23.218103 20.966499 23.8855L 19.75 28.75L 22.75 28.75L 22.75 34.75L 28 34.75M 45.25 45.25L 38.5 38.5M 35.570503 42.099998C 35.685616 42.37923 35.956989 42.562164 36.25901 42.564133C 36.561031 42.566097 36.834763 42.386707 36.953499 42.109001L 38.5 38.5L 42.109001 36.953499C 42.386707 36.834763 42.566097 36.561031 42.564133 36.25901C 42.562164 35.956989 42.37923 35.685616 42.099998 35.570503L 32.665001 31.685499C 32.384884 31.569815 32.062675 31.634079 31.848377 31.848377C 31.634079 32.062675 31.569815 32.384884 31.685499 32.665001Z"></path></g></g></g><g id="g-root-tx_transfor_1ltmvq017lr3m6-stroke" data-item-order="0" transform="translate(27, 243)"></g><g id="g-root-tx_successs_zn5u6w17lr3lt-stroke" data-item-order="0" transform="translate(531, 255)"></g><g id="g-root-page_3zc4817lr28c-stroke" data-item-order="0" transform="translate(369, 171)"><g id="page_3zc4817lr28c-stroke" fill="none" stroke-linecap="round" stroke-linejoin="round" stroke-miterlimit="4" stroke="#ffffff" stroke-width="2"><g><path d="M 28 40.375L 12.25 40.375C 11.421573 40.375 10.75 39.703426 10.75 38.875L 10.75 14.875C 10.75 14.046573 11.421573 13.375 12.25 13.375L 40.75 13.375C 41.578426 13.375 42.25 14.046573 42.25 14.875L 42.25 25.224998M 13.75 26.125L 15.25 27.625L 19.75 23.125M 22 26.875L 27.25 26.875M 24.25 23.875L 28.75 23.875M 10.75 19.375L 42.25 19.375M 28.75 32.168499C 28.75 35.920444 31.791553 38.961998 35.543499 38.961998C 39.295444 38.961998 42.336998 35.920444 42.336998 32.168499C 42.336998 28.416553 39.295444 25.375 35.543499 25.375C 31.791553 25.375 28.75 28.416553 28.75 32.168499ZM 45.25 41.875L 40.378002 37.003002"></path></g></g></g><g id="g-root-decr_zpp1y017bq328-stroke" data-item-order="0" transform="translate(297, 171)"><g id="decr_zpp1y017bq328-stroke" fill="none" stroke-linecap="round" stroke-linejoin="round" stroke-miterlimit="4" stroke="#ffffff" stroke-width="2"><g><path d="M 45.256001 44.5L 10.756 44.5M 39.25 44.5L 39.25 40.75C 39.25 40.335785 39.585785 40 40 40L 43 40C 43.414215 40 43.75 40.335785 43.75 40.75L 43.75 44.5M 30.25 44.5L 30.25 34.75C 30.25 34.335785 30.585787 34 31 34L 34 34C 34.414215 34 34.75 34.335785 34.75 34.75L 34.75 44.5M 21.25 44.5L 21.25 28.75C 21.25 28.335787 21.585787 28 22 28L 25 28C 25.414213 28 25.75 28.335787 25.75 28.75L 25.75 44.5M 12.25 44.5L 12.25 22.75C 12.25 22.335787 12.585787 22 13 22L 16 22C 16.414213 22 16.75 22.335787 16.75 22.75L 16.75 44.5M 41.506001 29.5L 14.506 11.5M 40.756001 23.5L 41.506001 29.5L 35.506001 30.25"></path></g></g></g><g id="g-root-circ_1hjgys817byjnz-stroke" data-item-order="0" transform="translate(303, 321)"><g id="circ_1hjgys817byjnz-stroke" fill="none" stroke-linecap="round" stroke-linejoin="round" stroke-miterlimit="4" stroke="#ffffff" stroke-width="2"><g><path d="M 11.285714 28C 11.285715 37.231045 18.768955 44.714287 28.000002 44.714287C 37.231045 44.714287 44.714287 37.231045 44.714287 28.000002C 44.714287 18.768955 37.231045 11.285715 28.000002 11.285715C 18.768955 11.285715 11.285715 18.768955 11.285715 28.000002M 24.142857 24.142857C 24.142857 22.012617 25.869759 20.285713 28 20.285713C 30.130241 20.285713 31.857143 22.012617 31.857143 24.142857C 31.857143 26.273098 30.130241 28 28 28L 28 30.571428"></path></g></g></g><g id="g-root-mana_18ml0d417c2pl9-stroke" data-item-order="0" transform="translate(363, 321)"><g id="mana_18ml0d417c2pl9-stroke" fill="none" stroke-linecap="round" stroke-linejoin="round" stroke-miterlimit="4" stroke="#ffffff" stroke-width="2"><g><path d="M 23.017 32.368L 32.983002 32.368L 32.983002 45.25L 23.017 45.25ZM 18.599499 21.4825L 23.017 28.3825L 32.982998 28.3825L 37.400501 21.4825L 18.599499 21.4825ZM 39.973 17.5765L 45.25 10.75L 10.75 10.75L 16.027 17.5765L 39.973 17.5765Z"></path></g></g></g><g id="g-root-tx_faqs_18isufs17lr21b-stroke" data-item-order="0" transform="translate(111, 363)"></g><g id="g-root-tx_solution_zn5u6w17lr3lu-stroke" data-item-order="0" transform="translate(531, 147)"></g><g id="g-root-tx_business_1up9vyw17lr2th-stroke" data-item-order="0" transform="translate(15, 147)"></g><g id="g-root-tx_spotcirc_1hclno817bubk7-stroke" data-item-order="0" transform="translate(231, 27)"></g><g id="g-root-tx_gettings_142zcbc17lr2tk-stroke" data-item-order="0" transform="translate(531, 363)"></g></g></g></svg>