<svg viewBox="0 0 800 600" xmlns="http://www.w3.org/2000/svg" preserveAspectRatio="xMidYMid meet">
  <defs>
    <linearGradient id="funnelBg" x1="0%" y1="0%" x2="100%" y2="100%">
      <stop offset="0%" style="stop-color:#064e3b;stop-opacity:0.9"/>
      <stop offset="100%" style="stop-color:#0f172a;stop-opacity:1"/>
    </linearGradient>
    <linearGradient id="funnelGreen" x1="0%" y1="0%" x2="100%" y2="100%">
      <stop offset="0%" style="stop-color:#10b981;stop-opacity:1"/>
      <stop offset="100%" style="stop-color:#059669;stop-opacity:1"/>
    </linearGradient>
    <linearGradient id="funnelOrange" x1="0%" y1="0%" x2="100%" y2="100%">
      <stop offset="0%" style="stop-color:#f59e0b;stop-opacity:1"/>
      <stop offset="100%" style="stop-color:#d97706;stop-opacity:1"/>
    </linearGradient>
    <linearGradient id="funnelBlue" x1="0%" y1="0%" x2="100%" y2="100%">
      <stop offset="0%" style="stop-color:#3b82f6;stop-opacity:1"/>
      <stop offset="100%" style="stop-color:#2563eb;stop-opacity:1"/>
    </linearGradient>
    <linearGradient id="cardBg" x1="0%" y1="0%" x2="100%" y2="100%">
      <stop offset="0%" style="stop-color:#065f46;stop-opacity:0.6"/>
      <stop offset="100%" style="stop-color:#1f2937;stop-opacity:0.8"/>
    </linearGradient>
    <filter id="glow">
      <feGaussianBlur stdDeviation="3" result="coloredBlur"/>
      <feMerge> 
        <feMergeNode in="coloredBlur"/>
        <feMergeNode in="SourceGraphic"/>
      </feMerge>
    </filter>
    <pattern id="gridPattern" width="20" height="20" patternUnits="userSpaceOnUse">
      <path d="M 20 0 L 0 0 0 20" fill="none" stroke="#10b981" stroke-width="0.5" opacity="0.1"/>
    </pattern>
  </defs>
  
  <!-- Background -->
  <rect width="800" height="600" fill="url(#funnelBg)"/>
  <rect width="800" height="600" fill="url(#gridPattern)"/>
  
  <!-- Header -->
  <rect x="20" y="20" width="760" height="60" rx="8" fill="url(#cardBg)" stroke="#10b981" stroke-width="1" opacity="0.9"/>
  <text x="40" y="45" font-family="Arial, sans-serif" font-size="18" font-weight="bold" fill="#10b981">Lead Generation Funnel</text>
  <text x="40" y="65" font-family="Arial, sans-serif" font-size="12" fill="#6ee7b7">AI-Optimized Conversion Process</text>
  
  <!-- Funnel Visualization -->
  <g id="funnel" transform="translate(400, 320)">
    <!-- Top of Funnel - Visitors -->
    <path d="M-200 -200 L200 -200 L150 -100 L-150 -100 Z" fill="url(#funnelBlue)" opacity="0.8" stroke="#3b82f6" stroke-width="2"/>
    <text x="0" y="-140" font-family="Arial, sans-serif" font-size="16" font-weight="bold" fill="white" text-anchor="middle">Visitors</text>
    <text x="0" y="-120" font-family="Arial, sans-serif" font-size="24" font-weight="bold" fill="white" text-anchor="middle">10,000</text>
    <text x="-250" y="-140" font-family="Arial, sans-serif" font-size="10" fill="#93c5fd" text-anchor="end">100%</text>
    
    <!-- Middle of Funnel - Leads -->
    <path d="M-150 -100 L150 -100 L100 0 L-100 0 Z" fill="url(#funnelOrange)" opacity="0.8" stroke="#f59e0b" stroke-width="2"/>
    <text x="0" y="-40" font-family="Arial, sans-serif" font-size="16" font-weight="bold" fill="white" text-anchor="middle">Leads</text>
    <text x="0" y="-20" font-family="Arial, sans-serif" font-size="24" font-weight="bold" fill="white" text-anchor="middle">3,200</text>
    <text x="-200" y="-40" font-family="Arial, sans-serif" font-size="10" fill="#fed7aa" text-anchor="end">32%</text>
    
    <!-- Qualified Leads -->
    <path d="M-100 0 L100 0 L60 80 L-60 80 Z" fill="#22c55e" opacity="0.8" stroke="#16a34a" stroke-width="2"/>
    <text x="0" y="35" font-family="Arial, sans-serif" font-size="16" font-weight="bold" fill="white" text-anchor="middle">Qualified</text>
    <text x="0" y="55" font-family="Arial, sans-serif" font-size="24" font-weight="bold" fill="white" text-anchor="middle">890</text>
    <text x="-150" y="40" font-family="Arial, sans-serif" font-size="10" fill="#86efac" text-anchor="end">8.9%</text>
    
    <!-- Bottom of Funnel - Customers -->
    <path d="M-60 80 L60 80 L40 140 L-40 140 Z" fill="url(#funnelGreen)" opacity="0.9" stroke="#10b981" stroke-width="2"/>
    <text x="0" y="105" font-family="Arial, sans-serif" font-size="16" font-weight="bold" fill="white" text-anchor="middle">Customers</text>
    <text x="0" y="125" font-family="Arial, sans-serif" font-size="24" font-weight="bold" fill="white" text-anchor="middle">312</text>
    <text x="-100" y="110" font-family="Arial, sans-serif" font-size="10" fill="#6ee7b7" text-anchor="end">3.1%</text>
    
    <!-- Conversion arrows -->
    <path d="M0 -80 L0 -20" stroke="#f59e0b" stroke-width="3" fill="none" marker-end="url(#arrowhead)">
      <animate attributeName="stroke-dasharray" values="0 60;60 0" dur="2s" repeatCount="indefinite"/>
    </path>
    <text x="30" y="-50" font-family="Arial, sans-serif" font-size="10" fill="#fbbf24">32% conversion</text>
    
    <path d="M0 20 L0 70" stroke="#16a34a" stroke-width="3" fill="none" marker-end="url(#arrowhead)">
      <animate attributeName="stroke-dasharray" values="0 50;50 0" dur="2s" begin="0.5s" repeatCount="indefinite"/>
    </path>
    <text x="30" y="45" font-family="Arial, sans-serif" font-size="10" fill="#4ade80">27.8% conversion</text>
    
    <path d="M0 90 L0 130" stroke="#10b981" stroke-width="3" fill="none" marker-end="url(#arrowhead)">
      <animate attributeName="stroke-dasharray" values="0 40;40 0" dur="2s" begin="1s" repeatCount="indefinite"/>
    </path>
    <text x="30" y="110" font-family="Arial, sans-serif" font-size="10" fill="#34d399">35% conversion</text>
  </g>
  
  <!-- Conversion Tactics -->
  <rect x="20" y="100" width="200" height="180" rx="8" fill="url(#cardBg)" stroke="#10b981" stroke-width="1" opacity="0.9"/>
  <text x="30" y="125" font-family="Arial, sans-serif" font-size="14" font-weight="bold" fill="#10b981">Top of Funnel</text>
  <text x="30" y="140" font-family="Arial, sans-serif" font-size="10" fill="#6ee7b7">Traffic Sources</text>
  
  <rect x="30" y="150" width="180" height="20" rx="4" fill="#065f46" opacity="0.6"/>
  <text x="40" y="163" font-family="Arial, sans-serif" font-size="9" fill="#e5e7eb">SEO Organic: 45%</text>
  
  <rect x="30" y="175" width="180" height="20" rx="4" fill="#065f46" opacity="0.6"/>
  <text x="40" y="188" font-family="Arial, sans-serif" font-size="9" fill="#e5e7eb">Paid Ads: 30%</text>
  
  <rect x="30" y="200" width="180" height="20" rx="4" fill="#065f46" opacity="0.6"/>
  <text x="40" y="213" font-family="Arial, sans-serif" font-size="9" fill="#e5e7eb">Social Media: 15%</text>
  
  <rect x="30" y="225" width="180" height="20" rx="4" fill="#065f46" opacity="0.6"/>
  <text x="40" y="238" font-family="Arial, sans-serif" font-size="9" fill="#e5e7eb">Referrals: 10%</text>
  
  <text x="30" y="265" font-family="Arial, sans-serif" font-size="10" fill="#10b981">AI Optimization: +47% traffic</text>
  
  <!-- Middle Funnel Tactics -->
  <rect x="20" y="300" width="200" height="180" rx="8" fill="url(#cardBg)" stroke="#10b981" stroke-width="1" opacity="0.9"/>
  <text x="30" y="325" font-family="Arial, sans-serif" font-size="14" font-weight="bold" fill="#10b981">Middle of Funnel</text>
  <text x="30" y="340" font-family="Arial, sans-serif" font-size="10" fill="#6ee7b7">Lead Capture Methods</text>
  
  <rect x="30" y="350" width="180" height="20" rx="4" fill="#065f46" opacity="0.6"/>
  <text x="40" y="363" font-family="Arial, sans-serif" font-size="9" fill="#e5e7eb">Landing Pages: 40%</text>
  
  <rect x="30" y="375" width="180" height="20" rx="4" fill="#065f46" opacity="0.6"/>
  <text x="40" y="388" font-family="Arial, sans-serif" font-size="9" fill="#e5e7eb">Content Offers: 25%</text>
  
  <rect x="30" y="400" width="180" height="20" rx="4" fill="#065f46" opacity="0.6"/>
  <text x="40" y="413" font-family="Arial, sans-serif" font-size="9" fill="#e5e7eb">Webinars: 20%</text>
  
  <rect x="30" y="425" width="180" height="20" rx="4" fill="#065f46" opacity="0.6"/>
  <text x="40" y="438" font-family="Arial, sans-serif" font-size="9" fill="#e5e7eb">Free Tools: 15%</text>
  
  <text x="30" y="465" font-family="Arial, sans-serif" font-size="10" fill="#10b981">AI Lead Scoring: +89% quality</text>
  
  <!-- Bottom Funnel Metrics -->
  <rect x="580" y="100" width="200" height="180" rx="8" fill="url(#cardBg)" stroke="#10b981" stroke-width="1" opacity="0.9"/>
  <text x="590" y="125" font-family="Arial, sans-serif" font-size="14" font-weight="bold" fill="#10b981">Bottom of Funnel</text>
  <text x="590" y="140" font-family="Arial, sans-serif" font-size="10" fill="#6ee7b7">Conversion Drivers</text>
  
  <rect x="590" y="150" width="180" height="20" rx="4" fill="#065f46" opacity="0.6"/>
  <text x="600" y="163" font-family="Arial, sans-serif" font-size="9" fill="#e5e7eb">Personalized Demos: 35%</text>
  
  <rect x="590" y="175" width="180" height="20" rx="4" fill="#065f46" opacity="0.6"/>
  <text x="600" y="188" font-family="Arial, sans-serif" font-size="9" fill="#e5e7eb">Email Nurturing: 30%</text>
  
  <rect x="590" y="200" width="180" height="20" rx="4" fill="#065f46" opacity="0.6"/>
  <text x="600" y="213" font-family="Arial, sans-serif" font-size="9" fill="#e5e7eb">Retargeting: 20%</text>
  
  <rect x="590" y="225" width="180" height="20" rx="4" fill="#065f46" opacity="0.6"/>
  <text x="600" y="238" font-family="Arial, sans-serif" font-size="9" fill="#e5e7eb">Sales Calls: 15%</text>
  
  <text x="590" y="265" font-family="Arial, sans-serif" font-size="10" fill="#10b981">AI Follow-up: +127% close rate</text>
  
  <!-- Revenue Impact -->
  <rect x="580" y="300" width="200" height="180" rx="8" fill="url(#cardBg)" stroke="#10b981" stroke-width="1" opacity="0.9"/>
  <text x="590" y="325" font-family="Arial, sans-serif" font-size="14" font-weight="bold" fill="#10b981">Revenue Impact</text>
  
  <circle cx="680" cy="390" r="40" fill="none" stroke="#065f46" stroke-width="8"/>
  <circle cx="680" cy="390" r="40" fill="none" stroke="url(#funnelGreen)" stroke-width="8" stroke-dasharray="220" stroke-dashoffset="66" transform="rotate(-90 680 390)"/>
  
  <text x="680" y="385" font-family="Arial, sans-serif" font-size="20" font-weight="bold" fill="#10b981" text-anchor="middle">$2.4M</text>
  <text x="680" y="400" font-family="Arial, sans-serif" font-size="10" fill="#6ee7b7" text-anchor="middle">Annual Revenue</text>
  
  <rect x="590" y="445" width="180" height="25" rx="4" fill="#065f46" opacity="0.6"/>
  <text x="600" y="460" font-family="Arial, sans-serif" font-size="10" fill="#6ee7b7">Avg Deal Size: $7,692</text>
  <text x="750" y="460" font-family="Arial, sans-serif" font-size="10" fill="#10b981" text-anchor="end">↗ +45%</text>
  
  <!-- Animated elements -->
  <g id="animations">
    <!-- Flowing leads -->
    <circle r="3" fill="#3b82f6">
      <animateMotion dur="4s" repeatCount="indefinite">
        <path d="M400 120 L400 220 L400 320 L400 420 L400 460"/>
      </animateMotion>
      <animate attributeName="fill" values="#3b82f6;#f59e0b;#22c55e;#10b981" dur="4s" repeatCount="indefinite"/>
    </circle>
    
    <circle r="3" fill="#3b82f6">
      <animateMotion dur="4s" begin="1s" repeatCount="indefinite">
        <path d="M380 120 L380 220 L380 320 L380 420 L380 460"/>
      </animateMotion>
      <animate attributeName="fill" values="#3b82f6;#f59e0b;#22c55e;#10b981" dur="4s" begin="1s" repeatCount="indefinite"/>
    </circle>
    
    <circle r="3" fill="#3b82f6">
      <animateMotion dur="4s" begin="2s" repeatCount="indefinite">
        <path d="M420 120 L420 220 L420 320 L420 420 L420 460"/>
      </animateMotion>
      <animate attributeName="fill" values="#3b82f6;#f59e0b;#22c55e;#10b981" dur="4s" begin="2s" repeatCount="indefinite"/>
    </circle>
  </g>
  
  <!-- Bottom Stats -->
  <rect x="20" y="500" width="760" height="80" rx="8" fill="url(#cardBg)" stroke="#10b981" stroke-width="1" opacity="0.9"/>
  <text x="30" y="525" font-family="Arial, sans-serif" font-size="14" font-weight="bold" fill="#10b981">AI Optimization Results</text>
  
  <div x="40" y="540" width="720" height="30">
    <rect x="40" y="540" width="170" height="30" rx="4" fill="#065f46" opacity="0.6"/>
    <text x="50" y="555" font-family="Arial, sans-serif" font-size="10" fill="#6ee7b7">Cost per Lead</text>
    <text x="50" y="565" font-family="Arial, sans-serif" font-size="12" font-weight="bold" fill="#10b981">$47</text>
    <text x="100" y="565" font-family="Arial, sans-serif" font-size="10" fill="#34d399">↘ -62%</text>
    
    <rect x="220" y="540" width="170" height="30" rx="4" fill="#065f46" opacity="0.6"/>
    <text x="230" y="555" font-family="Arial, sans-serif" font-size="10" fill="#6ee7b7">Lead Quality Score</text>
    <text x="230" y="565" font-family="Arial, sans-serif" font-size="12" font-weight="bold" fill="#10b981">8.7/10</text>
    <text x="300" y="565" font-family="Arial, sans-serif" font-size="10" fill="#34d399">↗ +34%</text>
    
    <rect x="400" y="540" width="170" height="30" rx="4" fill="#065f46" opacity="0.6"/>
    <text x="410" y="555" font-family="Arial, sans-serif" font-size="10" fill="#6ee7b7">Sales Cycle</text>
    <text x="410" y="565" font-family="Arial, sans-serif" font-size="12" font-weight="bold" fill="#10b981">18 days</text>
    <text x="480" y="565" font-family="Arial, sans-serif" font-size="10" fill="#34d399">↘ -45%</text>
    
    <rect x="580" y="540" width="180" height="30" rx="4" fill="#065f46" opacity="0.6"/>
    <text x="590" y="555" font-family="Arial, sans-serif" font-size="10" fill="#6ee7b7">Pipeline Value</text>
    <text x="590" y="565" font-family="Arial, sans-serif" font-size="12" font-weight="bold" fill="#10b981">$847K</text>
    <text x="670" y="565" font-family="Arial, sans-serif" font-size="10" fill="#34d399">↗ +156%</text>
  </div>
  
  <!-- Arrow marker -->
  <defs>
    <marker id="arrowhead" markerWidth="10" markerHeight="7" refX="9" refY="3.5" orient="auto">
      <polygon points="0 0, 10 3.5, 0 7" fill="#10b981"/>
    </marker>
  </defs>
</svg>