<svg width="800" height="600" viewBox="0 0 800 600" xmlns="http://www.w3.org/2000/svg">
  <defs>
    <linearGradient id="orangeRed" x1="0%" y1="0%" x2="100%" y2="100%">
      <stop offset="0%" style="stop-color:#F97316;stop-opacity:0.8" />
      <stop offset="100%" style="stop-color:#DC2626;stop-opacity:0.6" />
    </linearGradient>
    <linearGradient id="blueGreen" x1="0%" y1="0%" x2="100%" y2="100%">
      <stop offset="0%" style="stop-color:#3B82F6;stop-opacity:0.6" />
      <stop offset="100%" style="stop-color:#10B981;stop-opacity:0.4" />
    </linearGradient>
    <filter id="glow">
      <feGaussianBlur stdDeviation="3" result="coloredBlur"/>
      <feMerge>
        <feMergeNode in="coloredBlur"/>
        <feMergeNode in="SourceGraphic"/>
      </feMerge>
    </filter>
  </defs>
  
  <!-- Background -->
  <rect width="800" height="600" fill="#0a0a0a"/>
  
  <!-- City skyline silhouette -->
  <g opacity="0.2">
    <rect x="50" y="400" width="60" height="150" fill="#ffffff"/>
    <rect x="130" y="350" width="80" height="200" fill="#ffffff"/>
    <rect x="230" y="380" width="50" height="170" fill="#ffffff"/>
    <rect x="300" y="320" width="100" height="230" fill="#ffffff"/>
    <rect x="420" y="360" width="70" height="190" fill="#ffffff"/>
    <rect x="510" y="390" width="60" height="160" fill="#ffffff"/>
    <rect x="590" y="340" width="90" height="210" fill="#ffffff"/>
    <rect x="700" y="370" width="50" height="180" fill="#ffffff"/>
  </g>
  
  <!-- Map pin in center -->
  <g transform="translate(400, 250)">
    <path d="M 0,-80 C -44.18,-80 -80,-44.18 -80,0 C -80,30 -40,80 0,120 C 40,80 80,30 80,0 C 80,-44.18 44.18,-80 0,-80 Z" 
          fill="url(#orangeRed)" filter="url(#glow)"/>
    <circle cx="0" cy="0" r="30" fill="#ffffff" opacity="0.9"/>
    <circle cx="0" cy="0" r="20" fill="#F97316"/>
  </g>
  
  <!-- Location markers around the map -->
  <g opacity="0.7">
    <!-- Top left -->
    <g transform="translate(200, 150)">
      <path d="M 0,-30 C -16.57,-30 -30,-16.57 -30,0 C -30,15 -15,30 0,45 C 15,30 30,15 30,0 C 30,-16.57 16.57,-30 0,-30 Z" 
            fill="#3B82F6"/>
      <circle cx="0" cy="0" r="10" fill="#ffffff" opacity="0.8"/>
    </g>
    
    <!-- Top right -->
    <g transform="translate(600, 150)">
      <path d="M 0,-30 C -16.57,-30 -30,-16.57 -30,0 C -30,15 -15,30 0,45 C 15,30 30,15 30,0 C 30,-16.57 16.57,-30 0,-30 Z" 
            fill="#10B981"/>
      <circle cx="0" cy="0" r="10" fill="#ffffff" opacity="0.8"/>
    </g>
    
    <!-- Bottom left -->
    <g transform="translate(250, 400)">
      <path d="M 0,-30 C -16.57,-30 -30,-16.57 -30,0 C -30,15 -15,30 0,45 C 15,30 30,15 30,0 C 30,-16.57 16.57,-30 0,-30 Z" 
            fill="#8B5CF6"/>
      <circle cx="0" cy="0" r="10" fill="#ffffff" opacity="0.8"/>
    </g>
    
    <!-- Bottom right -->
    <g transform="translate(550, 400)">
      <path d="M 0,-30 C -16.57,-30 -30,-16.57 -30,0 C -30,15 -15,30 0,45 C 15,30 30,15 30,0 C 30,-16.57 16.57,-30 0,-30 Z" 
            fill="#EC4899"/>
      <circle cx="0" cy="0" r="10" fill="#ffffff" opacity="0.8"/>
    </g>
  </g>
  
  <!-- Connection lines -->
  <g opacity="0.3">
    <line x1="200" y1="150" x2="400" y2="250" stroke="#3B82F6" stroke-width="2" stroke-dasharray="5,5">
      <animate attributeName="stroke-dashoffset" values="0;10" dur="2s" repeatCount="indefinite"/>
    </line>
    <line x1="600" y1="150" x2="400" y2="250" stroke="#10B981" stroke-width="2" stroke-dasharray="5,5">
      <animate attributeName="stroke-dashoffset" values="0;10" dur="2s" repeatCount="indefinite"/>
    </line>
    <line x1="250" y1="400" x2="400" y2="250" stroke="#8B5CF6" stroke-width="2" stroke-dasharray="5,5">
      <animate attributeName="stroke-dashoffset" values="0;10" dur="2s" repeatCount="indefinite"/>
    </line>
    <line x1="550" y1="400" x2="400" y2="250" stroke="#EC4899" stroke-width="2" stroke-dasharray="5,5">
      <animate attributeName="stroke-dashoffset" values="0;10" dur="2s" repeatCount="indefinite"/>
    </line>
  </g>
  
  <!-- Local business icons -->
  <g transform="translate(100, 250)" opacity="0.8">
    <rect x="-30" y="-30" width="60" height="60" rx="10" fill="#1a1a1a" stroke="#F97316" stroke-width="2"/>
    <text x="0" y="5" text-anchor="middle" fill="#F97316" font-family="Arial" font-size="24">🏪</text>
  </g>
  
  <g transform="translate(700, 250)" opacity="0.8">
    <rect x="-30" y="-30" width="60" height="60" rx="10" fill="#1a1a1a" stroke="#10B981" stroke-width="2"/>
    <text x="0" y="5" text-anchor="middle" fill="#10B981" font-family="Arial" font-size="24">🏥</text>
  </g>
  
  <g transform="translate(400, 100)" opacity="0.8">
    <rect x="-30" y="-30" width="60" height="60" rx="10" fill="#1a1a1a" stroke="#3B82F6" stroke-width="2"/>
    <text x="0" y="5" text-anchor="middle" fill="#3B82F6" font-family="Arial" font-size="24">🏠</text>
  </g>
  
  <g transform="translate(400, 450)" opacity="0.8">
    <rect x="-30" y="-30" width="60" height="60" rx="10" fill="#1a1a1a" stroke="#8B5CF6" stroke-width="2"/>
    <text x="0" y="5" text-anchor="middle" fill="#8B5CF6" font-family="Arial" font-size="24">⚖️</text>
  </g>
  
  <!-- Search radius circles -->
  <g transform="translate(400, 250)" opacity="0.2">
    <circle cx="0" cy="0" r="100" fill="none" stroke="url(#orangeRed)" stroke-width="2">
      <animate attributeName="r" values="100;120;100" dur="3s" repeatCount="indefinite"/>
      <animate attributeName="opacity" values="0.2;0.1;0.2" dur="3s" repeatCount="indefinite"/>
    </circle>
    <circle cx="0" cy="0" r="150" fill="none" stroke="url(#orangeRed)" stroke-width="1">
      <animate attributeName="r" values="150;170;150" dur="4s" repeatCount="indefinite"/>
      <animate attributeName="opacity" values="0.15;0.05;0.15" dur="4s" repeatCount="indefinite"/>
    </circle>
    <circle cx="0" cy="0" r="200" fill="none" stroke="url(#orangeRed)" stroke-width="1">
      <animate attributeName="r" values="200;220;200" dur="5s" repeatCount="indefinite"/>
      <animate attributeName="opacity" values="0.1;0.05;0.1" dur="5s" repeatCount="indefinite"/>
    </circle>
  </g>
  
  <!-- Reviews and ratings -->
  <g transform="translate(150, 100)" opacity="0.9">
    <rect x="0" y="0" width="140" height="50" rx="25" fill="#1a1a1a" stroke="#F59E0B" stroke-width="2"/>
    <text x="20" y="30" fill="#F59E0B" font-family="Arial" font-size="20">★★★★★</text>
    <text x="110" y="30" fill="#ffffff" font-family="Arial" font-size="14">5.0</text>
  </g>
  
  <g transform="translate(510, 100)" opacity="0.9">
    <rect x="0" y="0" width="140" height="50" rx="25" fill="#1a1a1a" stroke="#10B981" stroke-width="2"/>
    <text x="20" y="30" fill="#ffffff" font-family="Arial" font-size="14">Reviews:</text>
    <text x="90" y="30" fill="#10B981" font-family="Arial" font-size="18" font-weight="bold">127</text>
  </g>
  
  <!-- Mobile device showing map -->
  <g transform="translate(600, 350)" opacity="0.8">
    <rect x="0" y="0" width="80" height="140" rx="10" fill="#1a1a1a" stroke="#ffffff" stroke-width="2"/>
    <rect x="5" y="20" width="70" height="100" fill="#0a0a0a"/>
    <circle cx="40" cy="130" r="5" fill="#ffffff" opacity="0.5"/>
    <circle cx="40" cy="60" r="15" fill="#F97316" opacity="0.8"/>
    <text x="40" y="65" text-anchor="middle" fill="#ffffff" font-family="Arial" font-size="16">📍</text>
  </g>
</svg>