<?xml version="1.0" encoding="utf-8" standalone="yes"?>
<!DOCTYPE svg PUBLIC "-//W3C//DTD SVG 1.1//EN" "http://www.w3.org/Graphics/SVG/1.1/DTD/svg11.dtd">
<svg width="818" height="506" viewBox="0 0 818 506" style="fill:none;stroke:none;fill-rule:evenodd;clip-rule:evenodd;stroke-linecap:round;stroke-linejoin:round;stroke-miterlimit:1.5;" version="1.1" xmlns="http://www.w3.org/2000/svg" xmlns:xlink="http://www.w3.org/1999/xlink"><style id="fontImports">@import url("https://fonts.googleapis.com/css2?family=Roboto:wght@400;700&amp;display=block");</style><rect id="" x="0" y="0" width="818" height="506" style="fill: #1ac6ff;"></rect><g id="items" style="isolation: isolate"><g id="blend" style="mix-blend-mode: normal"><g id="g-root-tf_18lbmfu17lsfsx-fill" data-item-order="-411264" transform="translate(-9, -9)"><g id="tf_18lbmfu17lsfsx-fill" stroke="none" fill="#1ac6ff"><g><path d="M 10 10L 826 10L 826 514L 10 514Z"></path></g></g></g><g id="g-root-5.cu_sy_qoeziy17lh7ut-fill" data-item-order="-71449" transform="translate(464.24951171875, 320.755859375)"><g id="5.cu_sy_qoeziy17lh7ut-fill" stroke="none" fill="#e55753"><g><path d="M 21.3646 112.332C 20.3601 99.7068 16.3302 87.9343 10 77.7392L 103.3361 10C 123.34 39.3254 135.429 74.4805 136.529 112.391L 21.3646 112.332Z"></path></g></g></g><g id="g-root-4.cu_sy_hsrza217lh8ni-fill" data-item-order="-71445" transform="translate(428, 248)"><g id="4.cu_sy_hsrza217lh8ni-fill" stroke="none" fill="#de8431"><g><path d="M 39.4485 141.169C 31.5362 131.856 21.4613 124.437 10 119.689L 45.5779 10C 80.4046 22.4662 110.58 44.7084 132.798 73.42L 39.4485 141.169Z"></path></g></g></g><g id="g-root-3.cu_sy_dcyh5m17lh9fr-fill" data-item-order="-71441" transform="translate(344.9873046875, 237)"><g id="3.cu_sy_dcyh5m17lh9fr-fill" stroke="none" fill="#e0cb15"><g><path d="M 82.0987 127.265C 76.1178 125.785 69.8631 125 63.425 125C 57.2918 125 51.3251 125.712 45.6029 127.059L 10 17.6761C 27.1074 12.6796 45.2033 10 63.925 10C 82.578 10 100.6097 12.6599 117.662 17.6212L 82.0987 127.265Z"></path></g></g></g><g id="g-root-2.cu_sy_dcyh5m17lh9fs-fill" data-item-order="-71437" transform="translate(246.9755859375, 248.24609375)"><g id="2.cu_sy_dcyh5m17lh9fs-fill" stroke="none" fill="#92bd39"><g><path d="M 132.608 119.293C 120.996 123.949 110.773 131.333 102.7324 140.654L 10 73.3525C 32.1782 44.6923 62.2858 22.4785 97.034 10L 132.608 119.293Z"></path></g></g></g><g id="g-root-1.cu_sy_8x4z1617lha81-fill" data-item-order="-71433" transform="translate(207, 320.935546875)"><g id="1.cu_sy_8x4z1617lha81-fill" stroke="none" fill="#3cc583"><g><path d="M 135.837 77.2402C 129.34 87.5284 125.197 99.4516 124.165 112.253L 10 112.195C 11.1361 74.3591 23.2184 39.2747 43.1883 10L 135.837 77.2402Z"></path></g></g></g><g id="g-root-tx_indicate_v6qqmy17lsg7b-fill" data-item-order="0" transform="translate(543, 195)"><g id="tx_indicate_v6qqmy17lsg7b-fill" stroke="none" fill="#4c4034"><g><text style="font: 11.7px Roboto, sans-serif; white-space: pre;" font-size="11.7px" font-family="Roboto, sans-serif"><tspan x="14.88" y="27.6" dominant-baseline="ideographic">Indicates the overall growth in </tspan><tspan x="39.44" y="41.6" dominant-baseline="ideographic">site traffic over time.</tspan></text></g></g></g><g id="g-root-tx_highligh_4mouy17lsgzl-fill" data-item-order="0" transform="translate(87, 195)"><g id="tx_highligh_4mouy17lsgzl-fill" stroke="none" fill="#424736"><g><text style="font: 11.7px Roboto, sans-serif; white-space: pre;" font-size="11.7px" font-family="Roboto, sans-serif"><tspan x="36.58" y="25.6" dominant-baseline="ideographic">Highlights the current </tspan><tspan x="15.54" y="39.6" dominant-baseline="ideographic">percentage of visitors making </tspan><tspan x="40.99" y="53.6" dominant-baseline="ideographic">purchases, showing </tspan><tspan x="56.13" y="67.6" dominant-baseline="ideographic">effectiveness.</tspan></text></g></g></g><g id="g-root-tx_averaget_mcz5ne17lsg0c-fill" data-item-order="0" transform="translate(549, 135)"><g id="tx_averaget_mcz5ne17lsg0c-fill" stroke="none" fill="#4c4034"><g><text style="font: bold 20px Roboto, sans-serif; white-space: pre;" font-weight="bold" font-size="20px" font-family="Roboto, sans-serif"><tspan x="17.22" y="34" dominant-baseline="ideographic">Average Traffic </tspan><tspan x="46.91" y="58" dominant-baseline="ideographic">Increase</tspan></text></g></g></g><g id="g-root-tx_demonstr_dfgq5617lsikg-fill" data-item-order="0" transform="translate(315, 147)"><g id="tx_demonstr_dfgq5617lsikg-fill" stroke="none" fill="#46432d"><g><text style="font: 11.7px Roboto, sans-serif; white-space: pre;" font-size="11.7px" font-family="Roboto, sans-serif"><tspan x="23.74" y="26.6" dominant-baseline="ideographic">Demonstrates the monthly </tspan><tspan x="13.76" y="40.6" dominant-baseline="ideographic">financial increase attributed to </tspan><tspan x="35.47" y="54.6" dominant-baseline="ideographic">improved SEO efforts.</tspan></text></g></g></g><g id="g-root-incr_1lr5rve17lpp8j-fill" data-item-order="0" transform="translate(375, 267)"></g><g id="g-root-tx_organict_4lp55m17lsidj-fill" data-item-order="0" transform="translate(27, 291)"><g id="tx_organict_4lp55m17lsidj-fill" stroke="none" fill="#374840"><g><text style="font: bold 20px Roboto, sans-serif; white-space: pre;" font-weight="bold" font-size="20px" font-family="Roboto, sans-serif"><tspan x="13.07" y="34" dominant-baseline="ideographic">Organic Traffic </tspan><tspan x="47.2" y="58" dominant-baseline="ideographic">Growth</tspan></text></g></g></g><g id="g-root-line_mdlgey17lk1e3-fill" data-item-order="0" transform="translate(291, 291)"></g><g id="g-root-wide_zk299617lwowa-fill" data-item-order="0" transform="translate(459, 291)"></g><g id="g-root-buy_1q88bbu17lsikt-fill" data-item-order="0" transform="translate(507, 363)"></g><g id="g-root-tx_conversi_91ina217lshla-fill" data-item-order="0" transform="translate(93, 135)"><g id="tx_conversi_91ina217lshla-fill" stroke="none" fill="#424736"><g><text style="font: bold 20px Roboto, sans-serif; white-space: pre;" font-weight="bold" font-size="20px" font-family="Roboto, sans-serif"><tspan x="11.86" y="34" dominant-baseline="ideographic">Conversion Rate </tspan><tspan x="59.71" y="58" dominant-baseline="ideographic">Trend</tspan></text></g></g></g><g id="g-root-tx_revenueg_hx5niy17lsgsl-fill" data-item-order="0" transform="translate(321.076171875, 111)"><g id="tx_revenueg_hx5niy17lsgsl-fill" stroke="none" fill="#46432d"><g><text style="font: bold 20px Roboto, sans-serif; white-space: pre;" font-weight="bold" font-size="20px" font-family="Roboto, sans-serif"><tspan x="14.46" y="34" dominant-baseline="ideographic">Revenue Growth</tspan></text></g></g></g><g id="g-root-tx_represen_1lua8gq17lside-fill" data-item-order="0" transform="translate(15, 351)"><g id="tx_represen_1lua8gq17lside-fill" stroke="none" fill="#374840"><g><text style="font: 11.7px Roboto, sans-serif; white-space: pre;" font-size="11.7px" font-family="Roboto, sans-serif"><tspan x="25.69" y="26.6" dominant-baseline="ideographic">Represents the significant </tspan><tspan x="11.88" y="40.6" dominant-baseline="ideographic">increase in website visitors due </tspan><tspan x="34.81" y="54.6" dominant-baseline="ideographic">to AI-driven strategies.</tspan></text></g></g></g><g id="g-root-tx_showsthe_1lt1aai17lsg7a-fill" data-item-order="0" transform="translate(615, 350.607421875)"><g id="tx_showsthe_1lt1aai17lsg7a-fill" stroke="none" fill="#543a3a"><g><text style="font: 11.7px Roboto, sans-serif; white-space: pre;" font-size="11.7px" font-family="Roboto, sans-serif"><tspan x="13.17" y="26.6" dominant-baseline="ideographic">Shows the enhancement in the </tspan><tspan x="12.46" y="40.6" dominant-baseline="ideographic">percentage of clicks on links to </tspan><tspan x="61.58" y="54.6" dominant-baseline="ideographic">the website.</tspan></text></g></g></g><g id="g-root-2_18eg50a17ly32l-fill" data-item-order="0" transform="translate(243, 363)"></g><g id="g-root-1_zpo9ju17lr1ft-fill" data-item-order="0" transform="translate(363, 375)"></g><g id="g-root-tx_transfor_4lp55m17lsidk-fill" data-item-order="0" transform="translate(105, 39)"><g id="tx_transfor_4lp55m17lsidk-fill" stroke="none" fill="#484848"><g><text style="font: bold 20px Roboto, sans-serif; white-space: pre;" font-weight="bold" font-size="20px" font-family="Roboto, sans-serif"><tspan x="14.15" y="34" dominant-baseline="ideographic">Transformative Impact of AI-Driven SEO on E-Commerce Growth</tspan></text></g></g></g><g id="g-root-tx_clickthr_znt6xm17lshl7-fill" data-item-order="0" transform="translate(627, 291)"><g id="tx_clickthr_znt6xm17lshl7-fill" stroke="none" fill="#543a3a"><g><text style="font: bold 20px Roboto, sans-serif; white-space: pre;" font-weight="bold" font-size="20px" font-family="Roboto, sans-serif"><tspan x="15.31" y="34" dominant-baseline="ideographic">Click-Through </tspan><tspan x="24.17" y="58" dominant-baseline="ideographic">Rate Growth</tspan></text></g></g></g><g id="g-root-tf_18lbmfu17lsfsx-stroke" data-item-order="-411264" transform="translate(-9, -9)"></g><g id="g-root-5.cu_sy_qoeziy17lh7ut-stroke" data-item-order="-71449" transform="translate(464.24951171875, 320.755859375)"><g id="5.cu_sy_qoeziy17lh7ut-stroke" fill="none" stroke-linecap="round" stroke-linejoin="round" stroke-miterlimit="4" stroke="#ffffff" stroke-width="2"><g><path d="M 21.3646 112.3316C 20.3601 99.7068 16.3302 87.9343 10 77.7392L 103.3361 10C 123.3401 39.3254 135.4294 74.4805 136.5293 112.3908L 21.3646 112.3316Z"></path></g></g></g><g id="g-root-4.cu_sy_hsrza217lh8ni-stroke" data-item-order="-71445" transform="translate(428, 248)"><g id="4.cu_sy_hsrza217lh8ni-stroke" fill="none" stroke-linecap="round" stroke-linejoin="round" stroke-miterlimit="4" stroke="#ffffff" stroke-width="2"><g><path d="M 39.4485 141.1687C 31.5362 131.8557 21.4613 124.4372 10 119.6894L 45.5779 10C 80.4046 22.4662 110.58 44.7084 132.7976 73.42L 39.4485 141.1687Z"></path></g></g></g><g id="g-root-3.cu_sy_dcyh5m17lh9fr-stroke" data-item-order="-71441" transform="translate(344.9873046875, 237)"><g id="3.cu_sy_dcyh5m17lh9fr-stroke" fill="none" stroke-linecap="round" stroke-linejoin="round" stroke-miterlimit="4" stroke="#ffffff" stroke-width="2"><g><path d="M 82.0987 127.2646C 76.1178 125.785 69.8631 125 63.425 125C 57.2918 125 51.3251 125.7124 45.6029 127.0591L 10 17.6761C 27.1074 12.6796 45.2033 10 63.925 10C 82.578 10 100.6097 12.6599 117.6616 17.6212L 82.0987 127.2646Z"></path></g></g></g><g id="g-root-2.cu_sy_dcyh5m17lh9fs-stroke" data-item-order="-71437" transform="translate(246.9755859375, 248.24609375)"><g id="2.cu_sy_dcyh5m17lh9fs-stroke" fill="none" stroke-linecap="round" stroke-linejoin="round" stroke-miterlimit="4" stroke="#ffffff" stroke-width="2"><g><path d="M 132.6076 119.2926C 120.9962 123.9486 110.7733 131.3334 102.7324 140.6537L 10 73.3525C 32.1782 44.6923 62.2858 22.4785 97.034 10L 132.6076 119.2926Z"></path></g></g></g><g id="g-root-1.cu_sy_8x4z1617lha81-stroke" data-item-order="-71433" transform="translate(207, 320.935546875)"><g id="1.cu_sy_8x4z1617lha81-stroke" fill="none" stroke-linecap="round" stroke-linejoin="round" stroke-miterlimit="4" stroke="#ffffff" stroke-width="2"><g><path d="M 135.8367 77.2402C 129.3397 87.5284 125.197 99.4516 124.1653 112.2533L 10 112.1946C 11.1361 74.3591 23.2184 39.2747 43.1883 10L 135.8367 77.2402Z"></path></g></g></g><g id="g-root-tx_indicate_v6qqmy17lsg7b-stroke" data-item-order="0" transform="translate(543, 195)"></g><g id="g-root-tx_highligh_4mouy17lsgzl-stroke" data-item-order="0" transform="translate(87, 195)"></g><g id="g-root-tx_averaget_mcz5ne17lsg0c-stroke" data-item-order="0" transform="translate(549, 135)"></g><g id="g-root-tx_demonstr_dfgq5617lsikg-stroke" data-item-order="0" transform="translate(315, 147)"></g><g id="g-root-incr_1lr5rve17lpp8j-stroke" data-item-order="0" transform="translate(375, 267)"><g id="incr_1lr5rve17lpp8j-stroke" fill="none" stroke-linecap="round" stroke-linejoin="round" stroke-miterlimit="4" stroke="#ffffff" stroke-width="2"><g><path d="M 39.007999 33L 55.007999 33C 55.007999 33 56.007999 33 56.007999 34L 56.007999 38C 56.007999 38 56.007999 39 55.007999 39L 39.007999 39C 39.007999 39 38.007999 39 38.007999 38L 38.007999 34C 38.007999 34 38.007999 33 39.007999 33M 37.007999 39L 53.007999 39C 53.007999 39 54.007999 39 54.007999 40L 54.007999 44C 54.007999 44 54.007999 45 53.007999 45L 37.007999 45C 37.007999 45 36.007999 45 36.007999 44L 36.007999 40C 36.007999 40 36.007999 39 37.007999 39M 39.007999 45L 55.007999 45C 55.007999 45 56.007999 45 56.007999 46L 56.007999 50C 56.007999 50 56.007999 51 55.007999 51L 39.007999 51C 39.007999 51 38.007999 51 38.007999 50L 38.007999 46C 38.007999 46 38.007999 45 39.007999 45M 37.007999 51L 53.007999 51C 53.007999 51 54.007999 51 54.007999 52L 54.007999 56C 54.007999 56 54.007999 57 53.007999 57L 37.007999 57C 37.007999 57 36.007999 57 36.007999 56L 36.007999 52C 36.007999 52 36.007999 51 37.007999 51M 13.007999 45L 29.007999 45C 29.007999 45 30.007999 45 30.007999 46L 30.007999 50C 30.007999 50 30.007999 51 29.007999 51L 13.007999 51C 13.007999 51 12.007999 51 12.007999 50L 12.007999 46C 12.007999 46 12.007999 45 13.007999 45M 15.007999 51L 31.007999 51C 31.007999 51 32.007999 51 32.007999 52L 32.007999 56C 32.007999 56 32.007999 57 31.007999 57L 15.007999 57C 15.007999 57 14.007999 57 14.007999 56L 14.007999 52C 14.007999 52 14.007999 51 15.007999 51M 13 37L 29.742001 20.265999C 30.461723 19.548534 31.605074 19.484873 32.400002 20.118L 39.557999 25.844C 40.374557 26.494204 41.553825 26.407106 42.265999 25.644001L 56 11M 42.007999 11L 56.007999 11L 56.007999 24"></path></g></g></g><g id="g-root-tx_organict_4lp55m17lsidj-stroke" data-item-order="0" transform="translate(27, 291)"></g><g id="g-root-line_mdlgey17lk1e3-stroke" data-item-order="0" transform="translate(291, 291)"><g id="line_mdlgey17lk1e3-stroke" fill="none" stroke-linecap="round" stroke-linejoin="round" stroke-miterlimit="4" stroke="#ffffff" stroke-width="2"><g><path d="M 11.008 34C 11.008 46.702549 21.30545 57 34.008003 57C 46.710548 57 57.007999 46.702549 57.007999 34C 57.007999 21.297451 46.710548 11 34.008003 11C 21.30545 11 11.008 21.297451 11.008 34ZM 47.007999 45L 21.007999 45L 21.007999 25M 21 35L 26.378 31.926001C 27.291264 31.403624 28.453098 31.678127 29.035999 32.554001L 32.860001 38.290001C 33.044575 38.730682 33.483971 39.00988 33.961323 38.989807C 34.438675 38.96973 34.853073 38.654621 35 38.199997L 39.528 29.879999C 39.830055 29.326275 40.375626 28.947491 41 28.858L 47 28"></path></g></g></g><g id="g-root-wide_zk299617lwowa-stroke" data-item-order="0" transform="translate(459, 291)"><g id="wide_zk299617lwowa-stroke" fill="none" stroke-linecap="round" stroke-linejoin="round" stroke-miterlimit="4" stroke="#ffffff" stroke-width="2"><g><path d="M 13.413832 32.585785L 32.584911 13.414708C 32.584911 13.414708 33.999123 12.000494 35.413338 13.414708L 54.584415 32.585785C 54.584415 32.585785 55.998631 34 54.584415 35.414215L 35.413338 54.585293C 35.413338 54.585293 33.999123 55.999504 32.584911 54.585293L 13.413832 35.414215C 13.413832 35.414215 11.99962 34 13.413832 32.585785M 42 26L 42 32.585999C 41.999947 32.850704 41.894936 33.104591 41.708 33.292L 36.292 38.708C 36.105064 38.895409 36.000053 39.149296 36 39.414001L 36 45M 26 26L 26 32.585999C 26.000055 32.850704 26.105062 33.104591 26.292 33.292L 31.708 38.708C 31.894938 38.895409 31.999945 39.149296 32 39.414001L 32 45"></path></g></g></g><g id="g-root-buy_1q88bbu17lsikt-stroke" data-item-order="0" transform="translate(507, 363)"><g id="buy_1q88bbu17lsikt-stroke" fill="none" stroke-linecap="round" stroke-linejoin="round" stroke-miterlimit="4" stroke="#ffffff" stroke-width="2"><g><path d="M 57 54L 48 45M 44.094002 49.799999C 44.247486 50.172306 44.609318 50.416222 45.012012 50.418842C 45.414707 50.421463 45.779682 50.182278 45.938 49.812L 48 45L 52.812 42.938C 53.182278 42.779682 53.421463 42.414707 53.418842 42.012012C 53.416222 41.609314 53.172306 41.247482 52.799999 41.094002L 40.220001 35.914001C 39.846512 35.75975 39.416901 35.84544 39.131172 36.131172C 38.84544 36.416901 38.75975 36.846512 38.914001 37.220001ZM 27 23C 27 24.656855 25.656855 26 24 26L 21 26L 21 20L 24 20C 25.656855 20 27 21.343147 27 23ZM 27 29C 27 30.656855 25.656855 32 24 32L 21 32L 21 26L 24 26C 25.656855 26 27 27.343145 27 29ZM 37 20L 37 29C 37 30.656855 35.656853 32 34 32C 32.343147 32 31 30.656855 31 29L 31 20M 45 27L 45 32M 49 20L 49 23C 48.993412 25.206404 47.206406 26.99341 45 27L 45 27C 42.793598 26.99341 41.006592 25.206404 41 23L 41 20M 51.726002 35.924C 55.018494 33.693085 56.993301 29.977116 57 26L 57 26C 56.980232 19.380789 51.619213 14.019769 45.000004 14L 23 14C 16.380789 14.019769 11.019769 19.380789 11 26L 11 26C 11.019769 32.619213 16.380789 37.980232 23 38L 34 38"></path></g></g></g><g id="g-root-tx_conversi_91ina217lshla-stroke" data-item-order="0" transform="translate(93, 135)"></g><g id="g-root-tx_revenueg_hx5niy17lsgsl-stroke" data-item-order="0" transform="translate(321.076171875, 111)"></g><g id="g-root-tx_represen_1lua8gq17lside-stroke" data-item-order="0" transform="translate(15, 351)"></g><g id="g-root-tx_showsthe_1lt1aai17lsg7a-stroke" data-item-order="0" transform="translate(615, 350.607421875)"></g><g id="g-root-2_18eg50a17ly32l-stroke" data-item-order="0" transform="translate(243, 363)"><g id="2_18eg50a17ly32l-stroke" fill="none" stroke-linecap="round" stroke-linejoin="round" stroke-miterlimit="4" stroke="#ffffff" stroke-width="2"><g><path d="M 43.007999 14L 49.007999 14L 49.007999 20M 12 28L 20.633999 21.962C 21.428761 21.406044 22.50787 21.500465 23.194 22.186001L 23.810001 22.802C 24.50103 23.493176 25.590389 23.583675 26.386 23.015999L 30.785999 19.880001C 31.513363 19.360348 32.497242 19.386477 33.195999 19.944L 35.795998 22.032C 36.5084 22.602013 37.516266 22.617645 38.246002 22.07L 49 14M 19 47C 19 46.447716 18.552284 46 18 46L 14 46C 13.447716 46 13 46.447716 13 47L 13 54L 19 54ZM 31 37C 31 36.447716 30.552284 36 30 36L 26 36C 25.447716 36 25 36.447716 25 37L 25 54L 31 54ZM 43 43C 43 42.447716 42.552284 42 42 42L 38 42C 37.447716 42 37 42.447716 37 43L 37 54L 43 54ZM 55 27C 55 26.447716 54.552284 26 54 26L 50 26C 49.447716 26 49 26.447716 49 27L 49 54L 55 54ZM 11.008 54L 57.007999 54"></path></g></g></g><g id="g-root-1_zpo9ju17lr1ft-stroke" data-item-order="0" transform="translate(363, 375)"><g id="1_zpo9ju17lr1ft-stroke" fill="none" stroke-linecap="round" stroke-linejoin="round" stroke-miterlimit="4" stroke="#3a4455" stroke-width="2"><g><path d="M 30.541 52.207001L 34.125999 58.878998M 51.133003 26.638L 65.268997 52.945M 63.745003 50.110001L 33.262001 57.267998L 31.360001 53.730999L 52.972 30.057999L 63.745003 50.110001ZM 39.847 55.723L 41.529999 58.768002C 42.087425 59.850819 43.066757 60.6558 44.237003 60.993076C 45.407249 61.330353 46.664783 61.170059 47.712997 60.549995C 49.917355 59.194534 50.68185 56.354984 49.455997 54.075996L 49.155998 53.538998M 41.542 16.674999C 42.679794 17.938099 44.299999 18.659252 46 18.659252C 47.700001 18.659252 49.320206 17.938099 50.458 16.674999L 53.344002 13.483C 55.043839 11.587549 57.754841 10.971286 60.10704 11.945632C 62.459236 12.919979 63.940384 15.272751 63.802002 17.815001L 63.583 22.111C 63.49585 23.807083 64.131561 25.460651 65.332451 26.661547C 66.533348 27.86244 68.18692 28.498154 69.883003 28.410999L 74.199997 28.198C 76.742249 28.059616 79.095016 29.540762 80.069366 31.89296C 81.043716 34.245159 80.427452 36.956161 78.531998 38.655998L 75.340004 41.542C 74.076904 42.679794 73.355751 44.299999 73.355751 46C 73.355751 47.700001 74.076904 49.320206 75.340004 50.458L 78.531998 53.344002C 80.427452 55.043839 81.043716 57.754841 80.069366 60.10704C 79.095016 62.459236 76.742249 63.940384 74.199997 63.802002L 69.903999 63.583C 68.207916 63.49585 66.554352 64.131561 65.353455 65.332451C 64.152557 66.533348 63.516846 68.18692 63.604 69.883003L 63.822998 74.179001C 63.96138 76.721245 62.480236 79.07402 60.12804 80.04837C 57.775841 81.022713 55.064835 80.406448 53.364998 78.511002L 50.479 75.319C 49.341206 74.055901 47.721001 73.334747 46.021 73.334747C 44.320999 73.334747 42.700794 74.055901 41.563 75.319L 38.677002 78.511002C 36.983025 80.420158 34.266644 81.048676 31.906242 80.077621C 29.545837 79.10656 28.058121 76.748505 28.198 74.199997L 28.417 69.903999C 28.504154 68.207916 27.868441 66.554352 26.667545 65.353455C 25.466652 64.152557 23.813084 63.516846 22.117001 63.604L 17.821001 63.822998C 15.27875 63.96138 12.925979 62.480236 11.951632 60.12804C 10.977285 57.775841 11.593549 55.064835 13.489 53.364998L 16.681 50.479C 17.944099 49.341206 18.665253 47.721001 18.665253 46.021C 18.665253 44.320999 17.944099 42.700794 16.681 41.563L 13.483 38.655998C 11.587549 36.956161 10.971286 34.245159 11.945632 31.89296C 12.919979 29.540762 15.272751 28.059616 17.815001 28.198L 22.111 28.417C 23.807083 28.504154 25.460651 27.868441 26.661547 26.667545C 27.86244 25.466652 28.498154 23.813084 28.410999 22.117001L 28.198 17.815001C 28.059616 15.272751 29.540762 12.919979 31.89296 11.945632C 34.245159 10.971286 36.956161 11.587549 38.655998 13.483Z"></path></g></g></g><g id="g-root-tx_transfor_4lp55m17lsidk-stroke" data-item-order="0" transform="translate(105, 39)"></g><g id="g-root-tx_clickthr_znt6xm17lshl7-stroke" data-item-order="0" transform="translate(627, 291)"></g></g></g></svg>