<svg viewBox="0 0 800 600" xmlns="http://www.w3.org/2000/svg" preserveAspectRatio="xMidYMid meet">
  <defs>
    <linearGradient id="roiBg" x1="0%" y1="0%" x2="100%" y2="100%">
      <stop offset="0%" style="stop-color:#022c22;stop-opacity:0.9"/>
      <stop offset="100%" style="stop-color:#0f172a;stop-opacity:1"/>
    </linearGradient>
    <linearGradient id="roiGreen" x1="0%" y1="0%" x2="0%" y2="100%">
      <stop offset="0%" style="stop-color:#10b981;stop-opacity:1"/>
      <stop offset="100%" style="stop-color:#059669;stop-opacity:1"/>
    </linearGradient>
    <linearGradient id="roiYellow" x1="0%" y1="0%" x2="0%" y2="100%">
      <stop offset="0%" style="stop-color:#fbbf24;stop-opacity:1"/>
      <stop offset="100%" style="stop-color:#f59e0b;stop-opacity:1"/>
    </linearGradient>
    <linearGradient id="cardBg" x1="0%" y1="0%" x2="100%" y2="100%">
      <stop offset="0%" style="stop-color:#065f46;stop-opacity:0.6"/>
      <stop offset="100%" style="stop-color:#1f2937;stop-opacity:0.8"/>
    </linearGradient>
    <filter id="glow">
      <feGaussianBlur stdDeviation="3" result="coloredBlur"/>
      <feMerge> 
        <feMergeNode in="coloredBlur"/>
        <feMergeNode in="SourceGraphic"/>
      </feMerge>
    </filter>
  </defs>
  
  <!-- Background -->
  <rect width="800" height="600" fill="url(#roiBg)"/>
  
  <!-- Header -->
  <rect x="20" y="20" width="760" height="60" rx="8" fill="url(#cardBg)" stroke="#10b981" stroke-width="1" opacity="0.9"/>
  <text x="40" y="45" font-family="Arial, sans-serif" font-size="18" font-weight="bold" fill="#10b981">ROI Performance Metrics</text>
  <text x="40" y="65" font-family="Arial, sans-serif" font-size="12" fill="#6ee7b7">12-Month Business Transformation</text>
  
  <!-- Main Chart Area -->
  <rect x="20" y="100" width="520" height="340" rx="8" fill="url(#cardBg)" stroke="#10b981" stroke-width="1" opacity="0.9"/>
  
  <!-- Chart Title -->
  <text x="280" y="130" font-family="Arial, sans-serif" font-size="14" font-weight="bold" fill="#10b981" text-anchor="middle">Revenue Growth Trajectory</text>
  
  <!-- Y-axis -->
  <line x1="60" y1="150" x2="60" y2="400" stroke="#065f46" stroke-width="2"/>
  
  <!-- Y-axis labels -->
  <text x="50" y="155" font-family="Arial, sans-serif" font-size="10" fill="#6ee7b7" text-anchor="end">$500K</text>
  <text x="50" y="205" font-family="Arial, sans-serif" font-size="10" fill="#6ee7b7" text-anchor="end">$400K</text>
  <text x="50" y="255" font-family="Arial, sans-serif" font-size="10" fill="#6ee7b7" text-anchor="end">$300K</text>
  <text x="50" y="305" font-family="Arial, sans-serif" font-size="10" fill="#6ee7b7" text-anchor="end">$200K</text>
  <text x="50" y="355" font-family="Arial, sans-serif" font-size="10" fill="#6ee7b7" text-anchor="end">$100K</text>
  <text x="50" y="405" font-family="Arial, sans-serif" font-size="10" fill="#6ee7b7" text-anchor="end">$0</text>
  
  <!-- X-axis -->
  <line x1="60" y1="400" x2="500" y2="400" stroke="#065f46" stroke-width="2"/>
  
  <!-- X-axis labels -->
  <text x="100" y="420" font-family="Arial, sans-serif" font-size="10" fill="#6ee7b7" text-anchor="middle">Q1</text>
  <text x="200" y="420" font-family="Arial, sans-serif" font-size="10" fill="#6ee7b7" text-anchor="middle">Q2</text>
  <text x="300" y="420" font-family="Arial, sans-serif" font-size="10" fill="#6ee7b7" text-anchor="middle">Q3</text>
  <text x="400" y="420" font-family="Arial, sans-serif" font-size="10" fill="#6ee7b7" text-anchor="middle">Q4</text>
  
  <!-- Grid lines -->
  <line x1="60" y1="350" x2="500" y2="350" stroke="#065f46" stroke-width="1" opacity="0.3" stroke-dasharray="5,5"/>
  <line x1="60" y1="300" x2="500" y2="300" stroke="#065f46" stroke-width="1" opacity="0.3" stroke-dasharray="5,5"/>
  <line x1="60" y1="250" x2="500" y2="250" stroke="#065f46" stroke-width="1" opacity="0.3" stroke-dasharray="5,5"/>
  <line x1="60" y1="200" x2="500" y2="200" stroke="#065f46" stroke-width="1" opacity="0.3" stroke-dasharray="5,5"/>
  <line x1="60" y1="150" x2="500" y2="150" stroke="#065f46" stroke-width="1" opacity="0.3" stroke-dasharray="5,5"/>
  
  <!-- Before AI line -->
  <path d="M100 350 L200 340 L300 330 L400 320" stroke="#ef4444" stroke-width="2" fill="none" stroke-dasharray="5,5" opacity="0.7"/>
  <circle cx="100" cy="350" r="4" fill="#ef4444"/>
  <circle cx="200" cy="340" r="4" fill="#ef4444"/>
  <circle cx="300" cy="330" r="4" fill="#ef4444"/>
  <circle cx="400" cy="320" r="4" fill="#ef4444"/>
  
  <!-- After AI line -->
  <path d="M100 350 L200 280 L300 200 L400 150" stroke="url(#roiGreen)" stroke-width="3" fill="none" filter="url(#glow)"/>
  <circle cx="100" cy="350" r="5" fill="#10b981"/>
  <circle cx="200" cy="280" r="5" fill="#10b981"/>
  <circle cx="300" cy="200" r="5" fill="#10b981"/>
  <circle cx="400" cy="150" r="5" fill="#10b981"/>
  
  <!-- Growth area fill -->
  <path d="M100 350 L200 280 L300 200 L400 150 L400 320 L300 330 L200 340 L100 350 Z" fill="url(#roiGreen)" opacity="0.2"/>
  
  <!-- Legend -->
  <rect x="70" y="160" width="120" height="50" rx="4" fill="#0f172a" opacity="0.9" stroke="#10b981" stroke-width="1"/>
  <line x1="80" y1="180" x2="100" y2="180" stroke="#ef4444" stroke-width="2" stroke-dasharray="5,5"/>
  <text x="105" y="185" font-family="Arial, sans-serif" font-size="10" fill="#e5e7eb">Before AI</text>
  <line x1="80" y1="195" x2="100" y2="195" stroke="#10b981" stroke-width="3"/>
  <text x="105" y="200" font-family="Arial, sans-serif" font-size="10" fill="#e5e7eb">With AI</text>
  
  <!-- Key Metrics Panel -->
  <rect x="560" y="100" width="220" height="340" rx="8" fill="url(#cardBg)" stroke="#10b981" stroke-width="1" opacity="0.9"/>
  <text x="670" y="130" font-family="Arial, sans-serif" font-size="14" font-weight="bold" fill="#10b981" text-anchor="middle">Performance Gains</text>
  
  <!-- Metric Cards -->
  <g id="metrics">
    <!-- Revenue Growth -->
    <rect x="570" y="150" width="200" height="60" rx="4" fill="#065f46" opacity="0.6"/>
    <text x="580" y="170" font-family="Arial, sans-serif" font-size="11" fill="#6ee7b7">Revenue Growth</text>
    <text x="580" y="190" font-family="Arial, sans-serif" font-size="24" font-weight="bold" fill="#10b981">312%</text>
    <text x="580" y="205" font-family="Arial, sans-serif" font-size="9" fill="#34d399">↗ vs 8% baseline</text>
    
    <!-- Cost Reduction -->
    <rect x="570" y="220" width="200" height="60" rx="4" fill="#065f46" opacity="0.6"/>
    <text x="580" y="240" font-family="Arial, sans-serif" font-size="11" fill="#6ee7b7">Operational Cost</text>
    <text x="580" y="260" font-family="Arial, sans-serif" font-size="24" font-weight="bold" fill="#10b981">-47%</text>
    <text x="580" y="275" font-family="Arial, sans-serif" font-size="9" fill="#34d399">↘ automation savings</text>
    
    <!-- Profit Margin -->
    <rect x="570" y="290" width="200" height="60" rx="4" fill="#065f46" opacity="0.6"/>
    <text x="580" y="310" font-family="Arial, sans-serif" font-size="11" fill="#6ee7b7">Profit Margin</text>
    <text x="580" y="330" font-family="Arial, sans-serif" font-size="24" font-weight="bold" fill="#10b981">42%</text>
    <text x="580" y="345" font-family="Arial, sans-serif" font-size="9" fill="#34d399">↗ from 15%</text>
    
    <!-- ROI Period -->
    <rect x="570" y="360" width="200" height="60" rx="4" fill="#065f46" opacity="0.6"/>
    <text x="580" y="380" font-family="Arial, sans-serif" font-size="11" fill="#6ee7b7">ROI Timeline</text>
    <text x="580" y="400" font-family="Arial, sans-serif" font-size="24" font-weight="bold" fill="#10b981">3.2 mo</text>
    <text x="580" y="415" font-family="Arial, sans-serif" font-size="9" fill="#34d399">Full payback period</text>
  </g>
  
  <!-- Bottom Investment Analysis -->
  <rect x="20" y="460" width="760" height="120" rx="8" fill="url(#cardBg)" stroke="#10b981" stroke-width="1" opacity="0.9"/>
  <text x="40" y="485" font-family="Arial, sans-serif" font-size="14" font-weight="bold" fill="#10b981">Investment Analysis</text>
  
  <!-- Investment bars -->
  <g id="investment">
    <!-- Initial Investment -->
    <rect x="40" y="500" width="150" height="60" rx="4" fill="#065f46" opacity="0.6"/>
    <text x="50" y="520" font-family="Arial, sans-serif" font-size="10" fill="#6ee7b7">Initial Investment</text>
    <text x="50" y="540" font-family="Arial, sans-serif" font-size="18" font-weight="bold" fill="#fbbf24">$24,000</text>
    <text x="50" y="555" font-family="Arial, sans-serif" font-size="9" fill="#e5e7eb">One-time setup</text>
    
    <!-- Monthly Cost -->
    <rect x="200" y="500" width="150" height="60" rx="4" fill="#065f46" opacity="0.6"/>
    <text x="210" y="520" font-family="Arial, sans-serif" font-size="10" fill="#6ee7b7">Monthly Cost</text>
    <text x="210" y="540" font-family="Arial, sans-serif" font-size="18" font-weight="bold" fill="#fbbf24">$2,997</text>
    <text x="210" y="555" font-family="Arial, sans-serif" font-size="9" fill="#e5e7eb">All-inclusive</text>
    
    <!-- Monthly Return -->
    <rect x="360" y="500" width="150" height="60" rx="4" fill="#065f46" opacity="0.6"/>
    <text x="370" y="520" font-family="Arial, sans-serif" font-size="10" fill="#6ee7b7">Avg Monthly Return</text>
    <text x="370" y="540" font-family="Arial, sans-serif" font-size="18" font-weight="bold" fill="#10b981">$47,250</text>
    <text x="370" y="555" font-family="Arial, sans-serif" font-size="9" fill="#e5e7eb">After month 4</text>
    
    <!-- Annual ROI -->
    <rect x="520" y="500" width="240" height="60" rx="4" fill="#065f46" opacity="0.6"/>
    <text x="530" y="520" font-family="Arial, sans-serif" font-size="10" fill="#6ee7b7">First Year ROI</text>
    <text x="530" y="540" font-family="Arial, sans-serif" font-size="18" font-weight="bold" fill="#10b981">1,247%</text>
    <rect x="650" y="530" width="100" height="15" rx="7" fill="#065f46"/>
    <rect x="650" y="530" width="90" height="15" rx="7" fill="url(#roiGreen)"/>
  </g>
  
  <!-- Animated growth indicator -->
  <g id="growthAnimation">
    <circle r="3" fill="#10b981" filter="url(#glow)">
      <animateMotion dur="4s" repeatCount="indefinite">
        <path d="M100 350 L200 280 L300 200 L400 150"/>
      </animateMotion>
    </circle>
  </g>
</svg>