<?xml version="1.0" encoding="utf-8" standalone="yes"?>
<!DOCTYPE svg PUBLIC "-//W3C//DTD SVG 1.1//EN" "http://www.w3.org/Graphics/SVG/1.1/DTD/svg11.dtd">
<svg width="770" height="686" viewBox="0 0 770 686" style="fill:none;stroke:none;fill-rule:evenodd;clip-rule:evenodd;stroke-linecap:round;stroke-linejoin:round;stroke-miterlimit:1.5;" version="1.1" xmlns="http://www.w3.org/2000/svg" xmlns:xlink="http://www.w3.org/1999/xlink"><style id="fontImports">@import url("https://fonts.googleapis.com/css2?family=Roboto:wght@400;700&amp;display=block");</style><rect id="" x="0" y="0" width="770" height="686" style="fill: #ffd9d8;"></rect><g id="items" style="isolation: isolate"><g id="blend" style="mix-blend-mode: normal"><g id="g-root-tf_m97s6w185gfep-fill" data-item-order="-525312" transform="translate(-9, -9)"><g id="tf_m97s6w185gfep-fill" stroke="none" fill="#ffd9d8"><g><path d="M 10 10L 778 10L 778 694L 10 694Z"></path></g></g></g><g id="g-root-4.Vector_sy_8zmlx4185q9s8-fill" data-item-order="-207930" transform="translate(388, 376)"><g id="4.Vector_sy_8zmlx4185q9s8-fill" stroke="none" fill="#de8431"><g><path d="M 21 10L 189 10C 195.075 10 200 14.925 200 21L 200 189C 200 195.075 195.075 200 189 200L 21 200C 14.925 200 10 195.075 10 189L 10 21C 10 14.925 14.925 10 21 10Z"></path></g></g></g><g id="g-root-3.Vector_sy_4jt3so185qakh-fill" data-item-order="-207926" transform="translate(172, 376)"><g id="3.Vector_sy_4jt3so185qakh-fill" stroke="none" fill="#e55753"><g><path d="M 21 10L 189 10C 195.075 10 200 14.925 200 21L 200 189C 200 195.075 195.075 200 189 200L 21 200C 14.925 200 10 195.075 10 189L 10 21C 10 14.925 14.925 10 21 10Z"></path></g></g></g><g id="g-root-2.Vector_sy_1upwmm0185q80a-fill" data-item-order="-207922" transform="translate(388, 160)"><g id="2.Vector_sy_1upwmm0185q80a-fill" stroke="none" fill="#3cc583"><g><path d="M 21 10L 189 10C 195.075 10 200 14.925 200 21L 200 189C 200 195.075 195.075 200 189 200L 21 200C 14.925 200 10 195.075 10 189L 10 21C 10 14.925 14.925 10 21 10Z"></path></g></g></g><g id="g-root-1.Vector_sy_1qa34hk185q8sj-fill" data-item-order="-207918" transform="translate(172, 160)"><g id="1.Vector_sy_1qa34hk185q8sj-fill" stroke="none" fill="#4e88e7"><g><path d="M 21 10L 189 10C 195.075 10 200 14.925 200 21L 200 189C 200 195.075 195.075 200 189 200L 21 200C 14.925 200 10 195.075 10 189L 10 21C 10 14.925 14.925 10 21 10Z"></path></g></g></g><g id="g-root-0.line_sy_1qa34hk185q8sk-fill" data-item-order="-207911" transform="translate(147, 363)"></g><g id="g-root-0.head_sy_1heg48o185q9l9-fill" data-item-order="-207909" transform="translate(147, 356.5)"></g><g id="g-root-0.head_1_sy_1cymm48185qadi-fill" data-item-order="-207907" transform="translate(596.5, 356.5)"></g><g id="g-root-0.line_1_sy_143m2yg185q80f-fill" data-item-order="-207903" transform="translate(375, 135)"></g><g id="g-root-0.head_2_sy_18jfl2w185q800-fill" data-item-order="-207901" transform="translate(368.5, 584.5)"></g><g id="g-root-0.head_3_sy_znsku0185q8sp-fill" data-item-order="-207899" transform="translate(368.5, 135)"></g><g id="g-root-tx_lowreven_1lqiv08185ggzx-fill" data-item-order="0" transform="translate(15, 351)"><g id="tx_lowreven_1lqiv08185ggzx-fill" stroke="none" fill="#484848"><g><text style="font: 11.7px Roboto, sans-serif; white-space: pre;" font-size="11.7px" font-family="Roboto, sans-serif"><tspan x="19.88" y="28.6" dominant-baseline="ideographic">Low Revenue Impact</tspan></text></g></g></g><g id="g-root-tx_optimize_91i16g185q8ss-fill" data-item-order="0" transform="translate(405, 255)"><g id="tx_optimize_91i16g185q8ss-fill" stroke="none" fill="#ffffff"><g><text style="font: 20px Roboto, sans-serif; white-space: pre;" font-size="20px" font-family="Roboto, sans-serif"><tspan x="16.88" y="34" dominant-baseline="ideographic">Optimized Store</tspan></text></g></g></g><g id="g-root-tx_highmark_1ur5ks8185qa6l-fill" data-item-order="0" transform="translate(207, 255)"><g id="tx_highmark_1ur5ks8185qa6l-fill" stroke="none" fill="#ffffff"><g><text style="font: 20px Roboto, sans-serif; white-space: pre;" font-size="20px" font-family="Roboto, sans-serif"><tspan x="13.24" y="34" dominant-baseline="ideographic">High Market </tspan><tspan x="18.98" y="58" dominant-baseline="ideographic">Share, Low </tspan><tspan x="29.69" y="82" dominant-baseline="ideographic">Revenue</tspan></text></g></g></g><g id="g-root-cart_145hi7s185yoli-fill" data-item-order="0" transform="translate(459, 183)"></g><g id="g-root-tx_highreve_18fotq0185gff3-fill" data-item-order="0" transform="translate(615, 351)"><g id="tx_highreve_18fotq0185gff3-fill" stroke="none" fill="#484848"><g><text style="font: 11.7px Roboto, sans-serif; white-space: pre;" font-size="11.7px" font-family="Roboto, sans-serif"><tspan x="12" y="28.6" dominant-baseline="ideographic">High Revenue Impact</tspan></text></g></g></g><g id="g-root-squa_1lqiv08185ggzw-fill" data-item-order="0" transform="translate(243, 183)"></g><g id="g-root-tx_lowmarke_1hbbtyw185geme-fill" data-item-order="0" transform="translate(303.08349609375, 603)"><g id="tx_lowmarke_1hbbtyw185geme-fill" stroke="none" fill="#484848"><g><text style="font: 11.7px Roboto, sans-serif; white-space: pre;" font-size="11.7px" font-family="Roboto, sans-serif"><tspan x="15.52" y="28.6" dominant-baseline="ideographic">Low Market Share Impact</tspan></text></g></g></g><g id="g-root-shop_1czvkag185vuv7-fill" data-item-order="0" transform="translate(243, 399)"></g><g id="g-root-cros_zs5wfs185t2x4-fill" data-item-order="0" transform="translate(459, 399)"></g><g id="g-root-tx_unoptimi_hx51fc185q803-fill" data-item-order="0" transform="translate(183, 471)"><g id="tx_unoptimi_hx51fc185q803-fill" stroke="none" fill="#ffffff"><g><text style="font: 20px Roboto, sans-serif; white-space: pre;" font-size="20px" font-family="Roboto, sans-serif"><tspan x="12.05" y="34" dominant-baseline="ideographic">Unoptimized Store</tspan></text></g></g></g><g id="g-root-tx_highreve_v7z2pk185q9ky-fill" data-item-order="0" transform="translate(399, 471)"><g id="tx_highreve_v7z2pk185q9ky-fill" stroke="none" fill="#ffffff"><g><text style="font: 20px Roboto, sans-serif; white-space: pre;" font-size="20px" font-family="Roboto, sans-serif"><tspan x="31.04" y="34" dominant-baseline="ideographic">High Revenue, </tspan><tspan x="13.84" y="58" dominant-baseline="ideographic">Low Market Share</tspan></text></g></g></g><g id="g-root-tx_highmark_13zvblk185gg7c-fill" data-item-order="0" transform="translate(303, 99)"><g id="tx_highmark_13zvblk185gg7c-fill" stroke="none" fill="#484848"><g><text style="font: 11.7px Roboto, sans-serif; white-space: pre;" font-size="11.7px" font-family="Roboto, sans-serif"><tspan x="14.29" y="28.6" dominant-baseline="ideographic">High Market Share Impact</tspan></text></g></g></g><g id="g-root-tx_impactof_1qbc2ns185qayu-fill" data-item-order="0" transform="translate(153, 39)"><g id="tx_impactof_1qbc2ns185qayu-fill" stroke="none" fill="#484848"><g><text style="font: 20px Roboto, sans-serif; white-space: pre;" font-size="20px" font-family="Roboto, sans-serif"><tspan x="16.43" y="34" dominant-baseline="ideographic">Impact of SEO Optimization on Business Metrics</tspan></text></g></g></g><g id="g-root-tf_m97s6w185gfep-stroke" data-item-order="-525312" transform="translate(-9, -9)"></g><g id="g-root-4.Vector_sy_8zmlx4185q9s8-stroke" data-item-order="-207930" transform="translate(388, 376)"><g id="4.Vector_sy_8zmlx4185q9s8-stroke" fill="none" stroke-linecap="round" stroke-linejoin="round" stroke-miterlimit="4" stroke="#ffffff" stroke-width="2"><g><path d="M 21 10L 189 10C 195.075 10 200 14.925 200 21L 200 189C 200 195.075 195.075 200 189 200L 21 200C 14.925 200 10 195.075 10 189L 10 21C 10 14.925 14.925 10 21 10Z"></path></g></g></g><g id="g-root-3.Vector_sy_4jt3so185qakh-stroke" data-item-order="-207926" transform="translate(172, 376)"><g id="3.Vector_sy_4jt3so185qakh-stroke" fill="none" stroke-linecap="round" stroke-linejoin="round" stroke-miterlimit="4" stroke="#ffffff" stroke-width="2"><g><path d="M 21 10L 189 10C 195.075 10 200 14.925 200 21L 200 189C 200 195.075 195.075 200 189 200L 21 200C 14.925 200 10 195.075 10 189L 10 21C 10 14.925 14.925 10 21 10Z"></path></g></g></g><g id="g-root-2.Vector_sy_1upwmm0185q80a-stroke" data-item-order="-207922" transform="translate(388, 160)"><g id="2.Vector_sy_1upwmm0185q80a-stroke" fill="none" stroke-linecap="round" stroke-linejoin="round" stroke-miterlimit="4" stroke="#ffffff" stroke-width="2"><g><path d="M 21 10L 189 10C 195.075 10 200 14.925 200 21L 200 189C 200 195.075 195.075 200 189 200L 21 200C 14.925 200 10 195.075 10 189L 10 21C 10 14.925 14.925 10 21 10Z"></path></g></g></g><g id="g-root-1.Vector_sy_1qa34hk185q8sj-stroke" data-item-order="-207918" transform="translate(172, 160)"><g id="1.Vector_sy_1qa34hk185q8sj-stroke" fill="none" stroke-linecap="round" stroke-linejoin="round" stroke-miterlimit="4" stroke="#ffffff" stroke-width="2"><g><path d="M 21 10L 189 10C 195.075 10 200 14.925 200 21L 200 189C 200 195.075 195.075 200 189 200L 21 200C 14.925 200 10 195.075 10 189L 10 21C 10 14.925 14.925 10 21 10Z"></path></g></g></g><g id="g-root-0.line_sy_1qa34hk185q8sk-stroke" data-item-order="-207911" transform="translate(147, 363)"><g id="0.line_sy_1qa34hk185q8sk-stroke" fill="none" stroke-linecap="round" stroke-linejoin="round" stroke-miterlimit="4" stroke="#484848" stroke-width="2"><g><path d="M 10 10L 238 10L 466 10"></path></g></g></g><g id="g-root-0.head_sy_1heg48o185q9l9-stroke" data-item-order="-207909" transform="translate(147, 356.5)"><g id="0.head_sy_1heg48o185q9l9-stroke" fill="none" stroke-linecap="round" stroke-linejoin="round" stroke-miterlimit="4" stroke="#484848" stroke-width="2"><g><path d="M 16.5 10C 14.333 12.167 10 16.5 10 16.5L 16.5 23"></path></g></g></g><g id="g-root-0.head_1_sy_1cymm48185qadi-stroke" data-item-order="-207907" transform="translate(596.5, 356.5)"><g id="0.head_1_sy_1cymm48185qadi-stroke" fill="none" stroke-linecap="round" stroke-linejoin="round" stroke-miterlimit="4" stroke="#484848" stroke-width="2"><g><path d="M 10 10C 12.166 12.167 16.5 16.5 16.5 16.5L 10 23"></path></g></g></g><g id="g-root-0.line_1_sy_143m2yg185q80f-stroke" data-item-order="-207903" transform="translate(375, 135)"><g id="0.line_1_sy_143m2yg185q80f-stroke" fill="none" stroke-linecap="round" stroke-linejoin="round" stroke-miterlimit="4" stroke="#484848" stroke-width="2"><g><path d="M 10 466L 10 242L 10 10"></path></g></g></g><g id="g-root-0.head_2_sy_18jfl2w185q800-stroke" data-item-order="-207901" transform="translate(368.5, 584.5)"><g id="0.head_2_sy_18jfl2w185q800-stroke" fill="none" stroke-linecap="round" stroke-linejoin="round" stroke-miterlimit="4" stroke="#484848" stroke-width="2"><g><path d="M 10 10C 12.167 12.167 16.5 16.5 16.5 16.5L 23 10"></path></g></g></g><g id="g-root-0.head_3_sy_znsku0185q8sp-stroke" data-item-order="-207899" transform="translate(368.5, 135)"><g id="0.head_3_sy_znsku0185q8sp-stroke" fill="none" stroke-linecap="round" stroke-linejoin="round" stroke-miterlimit="4" stroke="#484848" stroke-width="2"><g><path d="M 10 16.5C 12.167 14.333 16.5 10 16.5 10L 23 16.5"></path></g></g></g><g id="g-root-tx_lowreven_1lqiv08185ggzx-stroke" data-item-order="0" transform="translate(15, 351)"></g><g id="g-root-tx_optimize_91i16g185q8ss-stroke" data-item-order="0" transform="translate(405, 255)"></g><g id="g-root-tx_highmark_1ur5ks8185qa6l-stroke" data-item-order="0" transform="translate(207, 255)"></g><g id="g-root-cart_145hi7s185yoli-stroke" data-item-order="0" transform="translate(459, 183)"><g id="cart_145hi7s185yoli-stroke" fill="none" stroke-linecap="round" stroke-linejoin="round" stroke-miterlimit="4" stroke="#ffffff" stroke-width="2"><g><path d="M 53 27.681999L 53 54C 53 55.104568 52.104568 56 51 56L 17 56C 15.895431 56 15 55.104568 15 54L 15 27.681999M 53.551998 13.112C 53.215153 12.432209 52.522671 12.001538 51.764 12L 16.236 12C 15.478668 12.000404 14.786528 12.428541 14.448 13.106L 11 20L 57 20ZM 57 22C 57.083736 24.411758 55.645897 26.616974 53.405285 27.513218C 51.164677 28.409462 48.602646 27.804195 47 26C 45.68671 28.221724 43.392635 29.683964 40.824165 29.936464C 38.255699 30.188965 35.720791 29.20145 34 27.278C 32.278778 29.200628 29.744114 30.187553 27.175968 29.935085C 24.607822 29.682617 22.313873 28.221001 21 26C 19.396399 27.801754 16.835665 28.405405 14.596159 27.509604C 12.356651 26.6138 10.918639 24.410648 11 22L 11 20L 57 20ZM 21 26.006001L 21 20.006001L 23 12.006001M 34 27.296L 34 20.006001L 34 12.006001M 47 26.006001L 47 20.006001L 45 12.006001M 42.334 40.006001L 39 50.006001L 29 50.006001L 26 40.006001L 42.334 40.006001M 29 40.006001L 32 35.006001M 39 40.006001L 36 35.006001"></path></g></g></g><g id="g-root-tx_highreve_18fotq0185gff3-stroke" data-item-order="0" transform="translate(615, 351)"></g><g id="g-root-squa_1lqiv08185ggzw-stroke" data-item-order="0" transform="translate(243, 183)"><g id="squa_1lqiv08185ggzw-stroke" fill="none" stroke-linecap="round" stroke-linejoin="round" stroke-miterlimit="4" stroke="#ffffff" stroke-width="2"><g><path d="M 25.428572 42.57143L 42.57143 25.428572M 23.714287 25.428572C 23.714287 26.375347 24.481796 27.142857 25.428572 27.142857C 26.375347 27.142857 27.142857 26.375347 27.142857 25.428572C 27.142857 24.481796 26.375347 23.714287 25.428572 23.714287C 24.481796 23.714287 23.714287 24.481796 23.714287 25.428572M 40.857143 42.57143C 40.857143 43.518204 41.624657 44.285713 42.57143 44.285713C 43.518204 44.285713 44.285713 43.518204 44.285713 42.57143C 44.285713 41.624657 43.518204 40.857143 42.57143 40.857143C 41.624657 40.857143 40.857143 41.624657 40.857143 42.57143M 15.142858 11.714286L 52.857143 11.714286C 52.857143 11.714286 56.285713 11.714286 56.285713 15.142858L 56.285713 52.857143C 56.285713 52.857143 56.285713 56.285713 52.857143 56.285713L 15.142858 56.285713C 15.142858 56.285713 11.714286 56.285713 11.714286 52.857143L 11.714286 15.142858C 11.714286 15.142858 11.714286 11.714286 15.142858 11.714286"></path></g></g></g><g id="g-root-tx_lowmarke_1hbbtyw185geme-stroke" data-item-order="0" transform="translate(303.08349609375, 603)"></g><g id="g-root-shop_1czvkag185vuv7-stroke" data-item-order="0" transform="translate(243, 399)"><g id="shop_1czvkag185vuv7-stroke" fill="none" stroke-linecap="round" stroke-linejoin="round" stroke-miterlimit="4" stroke="#ffffff" stroke-width="2"><g><path d="M 53 29.676001L 53 52C 53 53.104568 52.104568 54 51 54L 17 54C 15.895431 54 15 53.104568 15 52L 15 29.676001M 19 36L 35 36L 35 48L 19 48ZM 49 54L 39 54L 39 37C 39 36.447716 39.447716 36 40 36L 48 36C 48.552284 36 49 36.447716 49 37ZM 53.551998 15.106C 53.213474 14.428541 52.521332 14.000404 51.764 14L 16.236 14C 15.478668 14.000404 14.786528 14.428541 14.448 15.106L 11 22L 57 22ZM 57 24C 57.083736 26.411758 55.645897 28.616974 53.405285 29.513218C 51.164677 30.409462 48.602646 29.804195 47 28C 45.686481 30.221279 43.392712 31.683304 40.824547 31.936169C 38.256378 32.189034 35.721516 31.202444 34 29.279999C 32.278481 31.202444 29.743618 32.189034 27.175453 31.936169C 24.607288 31.683304 22.313519 30.221279 21 28C 19.396399 29.801754 16.835665 30.405405 14.596159 29.509604C 12.356651 28.6138 10.918639 26.41065 11 24L 11 22L 57 22ZM 21 28L 21 22L 23 14M 34 29.290001L 34 22L 34 14M 47 28L 47 22L 45 14"></path></g></g></g><g id="g-root-cros_zs5wfs185t2x4-stroke" data-item-order="0" transform="translate(459, 399)"><g id="cros_zs5wfs185t2x4-stroke" fill="none" stroke-linecap="round" stroke-linejoin="round" stroke-miterlimit="4" stroke="#ffffff" stroke-width="2"><g><path d="M 34 34L 42.57143 25.428572M 49.428574 27.142857L 42.57143 25.428572L 40.857143 18.571428L 47.714287 11.714286L 49.428574 18.571428L 56.285713 20.285715L 49.428574 27.142857ZM 56.285713 40.857143L 40.857143 56.285713M 40.857143 40.857143L 56.285713 56.285713M 31.874287 56.182858C 20.442482 55.087448 11.714928 45.484165 11.714286 34L 11.714286 34C 11.705386 22.28989 20.773972 12.576759 32.457142 11.782857M 32.354286 44.285713C 27.323978 43.470795 23.648705 39.09547 23.714287 34L 23.714287 34C 23.715775 29.776375 26.29911 25.98295 30.228573 24.434286"></path></g></g></g><g id="g-root-tx_unoptimi_hx51fc185q803-stroke" data-item-order="0" transform="translate(183, 471)"></g><g id="g-root-tx_highreve_v7z2pk185q9ky-stroke" data-item-order="0" transform="translate(399, 471)"></g><g id="g-root-tx_highmark_13zvblk185gg7c-stroke" data-item-order="0" transform="translate(303, 99)"></g><g id="g-root-tx_impactof_1qbc2ns185qayu-stroke" data-item-order="0" transform="translate(153, 39)"></g></g></g></svg>